<svg width="120" height="125" viewBox="0 0 120 125" fill="none" xmlns="http://www.w3.org/2000/svg">
<path d="M2.8916 42.0957H34.6988V120.481H2.8916V42.0957Z" fill="#424040"/>
<path d="M83.8555 42.0957H116.386V120.481H83.8555V42.0957Z" fill="#424040"/>
<path d="M34.6992 22.499H83.8558V120.48H34.6992V22.499Z" fill="#424040"/>
<path d="M63.5848 94.1799C64.6645 93.505 65.5582 92.5541 66.1801 91.4188C66.802 90.2834 67.1311 89.0018 67.1357 87.6969C67.1096 85.6574 66.308 83.7106 64.9043 82.278C63.5006 80.8453 61.6079 80.042 59.6357 80.042C57.6636 80.042 55.7709 80.8453 54.3672 82.278C52.9635 83.7106 52.1618 85.6574 52.1357 87.6969C52.1404 89.0018 52.4695 90.2834 53.0914 91.4188C53.7132 92.5541 54.607 93.505 55.6867 94.18C53.5542 94.9839 51.7111 96.4444 50.4057 98.3649C49.1003 100.285 48.3953 102.573 48.3857 104.921V120.231H70.8857V104.921C70.8762 102.573 70.1712 100.285 68.8658 98.3648C67.5604 96.4444 65.7173 94.9838 63.5848 94.1799Z" fill="#225A41"/>
<path d="M42.5332 45.5938H46.3136V49.4213H42.5332V45.5938Z" fill="white"/>
<path d="M42.5332 53.249H46.3136V57.0766H42.5332V53.249Z" fill="white"/>
<path d="M42.5332 60.9033H46.3136V64.7309H42.5332V60.9033Z" fill="white"/>
<path d="M42.5332 68.5586H46.3136V72.3862H42.5332V68.5586Z" fill="white"/>
<path d="M50.0938 45.5938H53.8741V49.4213H50.0938V45.5938Z" fill="white"/>
<path d="M50.0938 53.249H53.8741V57.0766H50.0938V53.249Z" fill="white"/>
<path d="M50.0938 60.9033H53.8741V64.7309H50.0938V60.9033Z" fill="white"/>
<path d="M50.0938 68.5586H53.8741V72.3862H50.0938V68.5586Z" fill="white"/>
<path d="M57.6543 45.5938H61.4347V49.4213H57.6543V45.5938Z" fill="white"/>
<path d="M57.6543 53.249H61.4347V57.0766H57.6543V53.249Z" fill="white"/>
<path d="M57.6543 60.9033H61.4347V64.7309H57.6543V60.9033Z" fill="white"/>
<path d="M57.6543 68.5586H61.4347V72.3862H57.6543V68.5586Z" fill="white"/>
<path d="M65.2158 45.5938H68.9962V49.4213H65.2158V45.5938Z" fill="white"/>
<path d="M50.0938 37.9385H53.8741V41.766H50.0938V37.9385Z" fill="white"/>
<path d="M57.6543 37.9385H61.4347V41.766H57.6543V37.9385Z" fill="white"/>
<path d="M65.2158 37.9385H68.9962V41.766H65.2158V37.9385Z" fill="white"/>
<path d="M65.2158 53.249H68.9962V57.0766H65.2158V53.249Z" fill="white"/>
<path d="M65.2158 60.9033H68.9962V64.7309H65.2158V60.9033Z" fill="white"/>
<path d="M65.2158 68.5586H68.9962V72.3862H65.2158V68.5586Z" fill="white"/>
<path d="M72.7764 45.5938H76.5567V49.4213H72.7764V45.5938Z" fill="white"/>
<path d="M72.7764 53.249H76.5567V57.0766H72.7764V53.249Z" fill="white"/>
<path d="M72.7764 60.9033H76.5567V64.7309H72.7764V60.9033Z" fill="white"/>
<path d="M72.7764 68.5586H76.5567V72.3862H72.7764V68.5586Z" fill="white"/>
<path d="M25.2567 101.779C25.9325 101.252 26.4814 100.57 26.8605 99.7872C27.2396 99.0043 27.4388 98.1415 27.4424 97.266C27.4229 95.7363 26.8217 94.2761 25.7689 93.2015C24.7162 92.1269 23.2965 91.5244 21.8174 91.5244C20.3382 91.5244 18.9186 92.1269 17.8658 93.2015C16.8131 94.2761 16.2119 95.7363 16.1924 97.266C16.196 98.1415 16.3951 99.0043 16.7743 99.7872C17.1534 100.57 17.7023 101.252 18.3781 101.779C16.6382 102.468 15.1405 103.686 14.0812 105.271C13.022 106.856 12.4507 108.736 12.4424 110.662V120.231H31.1924V110.662C31.184 108.735 30.6128 106.856 29.5535 105.271C28.4943 103.686 26.9965 102.468 25.2567 101.779Z" fill="#43A77A"/>
<path d="M42.2674 96.0377C42.9432 95.5104 43.4921 94.8288 43.8712 94.0459C44.2504 93.2631 44.4495 92.4003 44.4531 91.5247C44.4337 89.9951 43.8325 88.5349 42.7797 87.4603C41.7269 86.3857 40.3073 85.7832 38.8281 85.7832C37.349 85.7832 35.9294 86.3857 34.8766 87.4603C33.8238 88.5349 33.2226 89.9951 33.2031 91.5247C33.2067 92.4003 33.4059 93.2631 33.785 94.0459C34.1641 94.8288 34.713 95.5104 35.3888 96.0377C33.649 96.7271 32.1512 97.9443 31.092 99.5296C30.0327 101.115 29.4615 102.994 29.4531 104.921V120.231H48.2031V104.921C48.1948 102.994 47.6235 101.115 46.5643 99.5296C45.505 97.9443 44.0073 96.7271 42.2674 96.0377Z" fill="#4D8F72"/>
<path d="M100.863 101.779C101.539 101.252 102.088 100.57 102.467 99.7872C102.846 99.0043 103.045 98.1415 103.049 97.266C103.029 95.7363 102.428 94.2761 101.375 93.2015C100.323 92.1269 98.903 91.5244 97.4238 91.5244C95.9447 91.5244 94.5251 92.1269 93.4723 93.2015C92.4195 94.2761 91.8183 95.7363 91.7988 97.266C91.8024 98.1415 92.0016 99.0043 92.3807 99.7872C92.7598 100.57 93.3087 101.252 93.9845 101.779C92.2447 102.468 90.7469 103.686 89.6877 105.271C88.6284 106.856 88.0572 108.736 88.0488 110.662V120.231H106.799V110.662C106.79 108.735 106.219 106.856 105.16 105.271C104.101 103.686 102.603 102.468 100.863 101.779Z" fill="#43A77A"/>
<path d="M83.8514 96.0377C84.5272 95.5104 85.0761 94.8288 85.4552 94.0459C85.8344 93.2631 86.0335 92.4003 86.0371 91.5247C86.0176 89.9951 85.4164 88.5349 84.3637 87.4603C83.3109 86.3857 81.8913 85.7832 80.4121 85.7832C78.933 85.7832 77.5133 86.3857 76.4606 87.4603C75.4078 88.5349 74.8066 89.9951 74.7871 91.5247C74.7907 92.4003 74.9899 93.2631 75.369 94.0459C75.7481 94.8288 76.297 95.5104 76.9728 96.0377C75.233 96.7271 73.7352 97.9443 72.6759 99.5296C71.6167 101.115 71.0455 102.994 71.0371 104.921V120.231H89.7871V104.921C89.7787 102.994 89.2075 101.115 88.1482 99.5296C87.089 97.9443 85.5912 96.7271 83.8514 96.0377Z" fill="#4D8F72"/>
<path d="M93.5674 51.335H97.3478V81.9554H93.5674V51.335Z" fill="white"/>
<path d="M104.909 51.335H108.69V81.9554H104.909V51.335Z" fill="white"/>
<path d="M10.3994 51.335H14.1798V81.9554H10.3994V51.335Z" fill="white"/>
<path d="M21.7402 51.335H25.5206V81.9554H21.7402V51.335Z" fill="white"/>
</svg>
