<svg width="120" height="120" viewBox="0 0 120 120" fill="none" xmlns="http://www.w3.org/2000/svg">
<g clip-path="url(#clip0)">
<path d="M69.8613 38.0237L83.5239 18.7227L86.3558 20.727L72.6922 40.0281L69.8613 38.0237Z" fill="#43A77A"/>
<path d="M67.6172 84.0635L70.4887 82.1182L83.8609 101.865L80.9894 103.81L67.6172 84.0635Z" fill="#43A77A"/>
<path d="M81.3701 64.5835L82.0466 61.1816L96.8493 64.1267L96.1718 67.5286L81.3701 64.5835Z" fill="#43A77A"/>
<path d="M103.489 58.5586C108.283 58.5586 112.168 62.4453 112.168 67.2389C112.168 72.0325 108.282 75.9182 103.489 75.9192C98.6953 75.9192 94.8086 72.0334 94.8076 67.2399C94.8066 62.4444 98.6944 58.5576 103.489 58.5586Z" fill="#225A41"/>
<path d="M90.703 1.355e-07C97.0954 0.000967947 102.276 5.18263 102.276 11.5741C102.276 17.9665 97.0944 23.1481 90.702 23.1481C84.3106 23.1481 79.1289 17.9674 79.1279 11.575C79.127 5.18263 84.3106 -0.000967676 90.703 1.355e-07Z" fill="#424040"/>
<path d="M87.4946 99.5771C93.135 99.5762 97.7069 104.148 97.7069 109.789C97.7079 115.428 93.135 120 87.4956 120C81.8552 120 77.2842 115.427 77.2842 109.788C77.2851 104.148 81.8561 99.5771 87.4946 99.5771Z" fill="#424040"/>
<path d="M42.8962 65.567C42.8962 68.3243 45.1309 70.5589 47.8882 70.5589C50.6455 70.5589 52.8802 68.3243 52.8802 65.567V37.7782C53.0912 35.7332 52.6218 33.6747 51.5456 31.9239C52.6876 31.7855 53.8383 31.7158 54.989 31.7158C66.7586 31.7226 77.3174 38.9521 81.5797 49.9223C85.8419 60.8934 82.9337 73.355 74.2562 81.3055C65.5779 89.2571 52.9102 91.0669 42.3533 85.863L42.1133 85.8562L42.784 63.2578L42.8962 59.4969V65.567Z" fill="#424040"/>
<path d="M30.4953 112.818C30.4963 115.766 28.1339 118.172 25.1849 118.227C22.236 118.28 19.7884 115.96 19.6829 113.013L18.2041 63.2578H42.7836L42.1129 85.8562L41.3048 113.013C41.1993 115.96 38.7517 118.278 35.8038 118.225C32.8558 118.171 30.4943 115.766 30.4953 112.818Z" fill="#424040"/>
<path d="M39.1939 10.8177V14.4354C39.1939 19.4283 35.1465 23.4757 30.1526 23.4757C25.1597 23.4757 21.1123 19.4283 21.1123 14.4354V10.8177C21.1123 5.82473 25.1597 1.77734 30.1526 1.77734C35.1465 1.77734 39.1939 5.82473 39.1939 10.8177Z" fill="#424040"/>
<path d="M18.2033 63.2582H18.0349V65.4309C18.0349 68.1882 15.8593 70.5274 13.1039 70.5593C11.7712 70.5748 10.4879 70.0561 9.54044 69.1192C8.59295 68.1824 8.05969 66.9049 8.05969 65.5722V37.7786C7.7916 35.1355 8.65586 32.5021 10.4366 30.5316C12.2184 28.5611 14.7511 27.4365 17.4078 27.4365H22.4569L25.7823 40.1845L29.2509 33.4873H31.4062V33.4902L35.1545 40.1845L38.7722 27.4365H43.5339C46.1905 27.4365 48.7223 28.5611 50.5031 30.5326C52.2838 32.503 53.1471 35.1355 52.879 37.7786V65.5674C52.879 68.3247 50.6444 70.5593 47.8871 70.5593C45.1298 70.5593 42.8951 68.3247 42.8951 65.5674V59.4972L42.7828 63.2582H18.2033Z" fill="#225A41"/>
</g>
<defs>
<clipPath id="clip0">
<rect width="120" height="120" fill="white"/>
</clipPath>
</defs>
</svg>
