<svg width="179" height="197" viewBox="0 0 179 197" fill="none" xmlns="http://www.w3.org/2000/svg">
<path d="M24.9061 140.112C24.9061 141.04 24.5861 141.813 23.9461 142.432C23.3168 143.04 22.3515 143.344 21.0501 143.344H18.9061V148H17.4501V136.848H21.0501C22.3088 136.848 23.2635 137.152 23.9141 137.76C24.5755 138.368 24.9061 139.152 24.9061 140.112ZM21.0501 142.144C21.8608 142.144 22.4581 141.968 22.8421 141.616C23.2261 141.264 23.4181 140.763 23.4181 140.112C23.4181 138.736 22.6288 138.048 21.0501 138.048H18.9061V142.144H21.0501ZM28.3317 140.656C28.5877 140.155 28.9504 139.765 29.4197 139.488C29.8997 139.211 30.4811 139.072 31.1637 139.072V140.576H30.7797C29.1477 140.576 28.3317 141.461 28.3317 143.232V148H26.8757V139.232H28.3317V140.656ZM36.8285 148.144C36.0072 148.144 35.2605 147.957 34.5885 147.584C33.9272 147.211 33.4045 146.683 33.0205 146C32.6472 145.307 32.4605 144.507 32.4605 143.6C32.4605 142.704 32.6525 141.915 33.0365 141.232C33.4312 140.539 33.9645 140.011 34.6365 139.648C35.3085 139.275 36.0605 139.088 36.8925 139.088C37.7245 139.088 38.4765 139.275 39.1485 139.648C39.8205 140.011 40.3485 140.533 40.7325 141.216C41.1272 141.899 41.3245 142.693 41.3245 143.6C41.3245 144.507 41.1218 145.307 40.7165 146C40.3218 146.683 39.7832 147.211 39.1005 147.584C38.4178 147.957 37.6605 148.144 36.8285 148.144ZM36.8285 146.864C37.3512 146.864 37.8418 146.741 38.3005 146.496C38.7592 146.251 39.1272 145.883 39.4045 145.392C39.6925 144.901 39.8365 144.304 39.8365 143.6C39.8365 142.896 39.6978 142.299 39.4205 141.808C39.1432 141.317 38.7805 140.955 38.3325 140.72C37.8845 140.475 37.3992 140.352 36.8765 140.352C36.3432 140.352 35.8525 140.475 35.4045 140.72C34.9672 140.955 34.6152 141.317 34.3485 141.808C34.0818 142.299 33.9485 142.896 33.9485 143.6C33.9485 144.315 34.0765 144.917 34.3325 145.408C34.5992 145.899 34.9512 146.267 35.3885 146.512C35.8258 146.747 36.3058 146.864 36.8285 146.864ZM46.9669 140.432H45.1269V148H43.6709V140.432H42.5349V139.232H43.6709V138.608C43.6709 137.627 43.9215 136.912 44.4229 136.464C44.9349 136.005 45.7509 135.776 46.8709 135.776V136.992C46.2309 136.992 45.7775 137.12 45.5109 137.376C45.2549 137.621 45.1269 138.032 45.1269 138.608V139.232H46.9669V140.432ZM56.8245 143.28C56.8245 143.557 56.8085 143.851 56.7765 144.16H49.7685C49.8218 145.024 50.1152 145.701 50.6485 146.192C51.1925 146.672 51.8485 146.912 52.6165 146.912C53.2458 146.912 53.7685 146.768 54.1845 146.48C54.6112 146.181 54.9098 145.787 55.0805 145.296H56.6485C56.4138 146.139 55.9445 146.827 55.2405 147.36C54.5365 147.883 53.6618 148.144 52.6165 148.144C51.7845 148.144 51.0378 147.957 50.3765 147.584C49.7258 147.211 49.2138 146.683 48.8405 146C48.4672 145.307 48.2805 144.507 48.2805 143.6C48.2805 142.693 48.4618 141.899 48.8245 141.216C49.1872 140.533 49.6938 140.011 50.3445 139.648C51.0058 139.275 51.7632 139.088 52.6165 139.088C53.4485 139.088 54.1845 139.269 54.8245 139.632C55.4645 139.995 55.9552 140.496 56.2965 141.136C56.6485 141.765 56.8245 142.48 56.8245 143.28ZM55.3205 142.976C55.3205 142.421 55.1978 141.947 54.9525 141.552C54.7072 141.147 54.3712 140.843 53.9445 140.64C53.5285 140.427 53.0645 140.32 52.5525 140.32C51.8165 140.32 51.1872 140.555 50.6645 141.024C50.1525 141.493 49.8592 142.144 49.7845 142.976H55.3205ZM62.0104 148.144C61.3384 148.144 60.7357 148.032 60.2024 147.808C59.669 147.573 59.2477 147.253 58.9384 146.848C58.629 146.432 58.4584 145.957 58.4264 145.424H59.9304C59.973 145.861 60.1757 146.219 60.5384 146.496C60.9117 146.773 61.397 146.912 61.9944 146.912C62.549 146.912 62.9864 146.789 63.3064 146.544C63.6264 146.299 63.7864 145.989 63.7864 145.616C63.7864 145.232 63.6157 144.949 63.2744 144.768C62.933 144.576 62.405 144.389 61.6904 144.208C61.0397 144.037 60.5064 143.867 60.0904 143.696C59.685 143.515 59.333 143.253 59.0344 142.912C58.7464 142.56 58.6024 142.101 58.6024 141.536C58.6024 141.088 58.7357 140.677 59.0024 140.304C59.269 139.931 59.6477 139.637 60.1384 139.424C60.629 139.2 61.189 139.088 61.8184 139.088C62.789 139.088 63.573 139.333 64.1704 139.824C64.7677 140.315 65.0877 140.987 65.1304 141.84H63.6744C63.6424 141.381 63.4557 141.013 63.1144 140.736C62.7837 140.459 62.3357 140.32 61.7704 140.32C61.2477 140.32 60.8317 140.432 60.5224 140.656C60.213 140.88 60.0584 141.173 60.0584 141.536C60.0584 141.824 60.149 142.064 60.3304 142.256C60.5224 142.437 60.757 142.587 61.0344 142.704C61.3224 142.811 61.717 142.933 62.2184 143.072C62.8477 143.243 63.3597 143.413 63.7544 143.584C64.149 143.744 64.485 143.989 64.7624 144.32C65.0504 144.651 65.1997 145.083 65.2104 145.616C65.2104 146.096 65.077 146.528 64.8104 146.912C64.5437 147.296 64.165 147.6 63.6744 147.824C63.1944 148.037 62.6397 148.144 62.0104 148.144ZM70.5297 148.144C69.8577 148.144 69.2551 148.032 68.7217 147.808C68.1884 147.573 67.7671 147.253 67.4577 146.848C67.1484 146.432 66.9777 145.957 66.9457 145.424H68.4497C68.4924 145.861 68.6951 146.219 69.0577 146.496C69.4311 146.773 69.9164 146.912 70.5137 146.912C71.0684 146.912 71.5057 146.789 71.8257 146.544C72.1457 146.299 72.3057 145.989 72.3057 145.616C72.3057 145.232 72.1351 144.949 71.7937 144.768C71.4524 144.576 70.9244 144.389 70.2097 144.208C69.5591 144.037 69.0257 143.867 68.6097 143.696C68.2044 143.515 67.8524 143.253 67.5537 142.912C67.2657 142.56 67.1217 142.101 67.1217 141.536C67.1217 141.088 67.2551 140.677 67.5217 140.304C67.7884 139.931 68.1671 139.637 68.6577 139.424C69.1484 139.2 69.7084 139.088 70.3377 139.088C71.3084 139.088 72.0924 139.333 72.6897 139.824C73.2871 140.315 73.6071 140.987 73.6497 141.84H72.1937C72.1617 141.381 71.9751 141.013 71.6337 140.736C71.3031 140.459 70.8551 140.32 70.2897 140.32C69.7671 140.32 69.3511 140.432 69.0417 140.656C68.7324 140.88 68.5777 141.173 68.5777 141.536C68.5777 141.824 68.6684 142.064 68.8497 142.256C69.0417 142.437 69.2764 142.587 69.5537 142.704C69.8417 142.811 70.2364 142.933 70.7377 143.072C71.3671 143.243 71.8791 143.413 72.2737 143.584C72.6684 143.744 73.0044 143.989 73.2817 144.32C73.5697 144.651 73.7191 145.083 73.7297 145.616C73.7297 146.096 73.5964 146.528 73.3297 146.912C73.0631 147.296 72.6844 147.6 72.1937 147.824C71.7137 148.037 71.1591 148.144 70.5297 148.144ZM76.6971 137.808C76.4198 137.808 76.1851 137.712 75.9931 137.52C75.8011 137.328 75.7051 137.093 75.7051 136.816C75.7051 136.539 75.8011 136.304 75.9931 136.112C76.1851 135.92 76.4198 135.824 76.6971 135.824C76.9638 135.824 77.1878 135.92 77.3691 136.112C77.5611 136.304 77.6571 136.539 77.6571 136.816C77.6571 137.093 77.5611 137.328 77.3691 137.52C77.1878 137.712 76.9638 137.808 76.6971 137.808ZM77.4011 139.232V148H75.9451V139.232H77.4011ZM83.8666 148.144C83.0453 148.144 82.2986 147.957 81.6266 147.584C80.9653 147.211 80.4426 146.683 80.0586 146C79.6853 145.307 79.4986 144.507 79.4986 143.6C79.4986 142.704 79.6906 141.915 80.0746 141.232C80.4693 140.539 81.0026 140.011 81.6746 139.648C82.3466 139.275 83.0986 139.088 83.9306 139.088C84.7626 139.088 85.5146 139.275 86.1866 139.648C86.8586 140.011 87.3866 140.533 87.7706 141.216C88.1653 141.899 88.3626 142.693 88.3626 143.6C88.3626 144.507 88.16 145.307 87.7546 146C87.36 146.683 86.8213 147.211 86.1386 147.584C85.456 147.957 84.6986 148.144 83.8666 148.144ZM83.8666 146.864C84.3893 146.864 84.88 146.741 85.3386 146.496C85.7973 146.251 86.1653 145.883 86.4426 145.392C86.7306 144.901 86.8746 144.304 86.8746 143.6C86.8746 142.896 86.736 142.299 86.4586 141.808C86.1813 141.317 85.8186 140.955 85.3706 140.72C84.9226 140.475 84.4373 140.352 83.9146 140.352C83.3813 140.352 82.8906 140.475 82.4426 140.72C82.0053 140.955 81.6533 141.317 81.3866 141.808C81.12 142.299 80.9866 142.896 80.9866 143.6C80.9866 144.315 81.1146 144.917 81.3706 145.408C81.6373 145.899 81.9893 146.267 82.4266 146.512C82.864 146.747 83.344 146.864 83.8666 146.864ZM94.709 139.072C95.7757 139.072 96.6397 139.397 97.301 140.048C97.9623 140.688 98.293 141.616 98.293 142.832V148H96.853V143.04C96.853 142.165 96.6343 141.499 96.197 141.04C95.7597 140.571 95.1623 140.336 94.405 140.336C93.637 140.336 93.0237 140.576 92.565 141.056C92.117 141.536 91.893 142.235 91.893 143.152V148H90.437V139.232H91.893V140.48C92.181 140.032 92.5703 139.685 93.061 139.44C93.5623 139.195 94.1117 139.072 94.709 139.072ZM100.287 143.584C100.287 142.688 100.469 141.904 100.831 141.232C101.194 140.549 101.69 140.021 102.319 139.648C102.959 139.275 103.669 139.088 104.447 139.088C105.215 139.088 105.882 139.253 106.447 139.584C107.013 139.915 107.434 140.331 107.711 140.832V139.232H109.183V148H107.711V146.368C107.423 146.88 106.991 147.307 106.415 147.648C105.85 147.979 105.189 148.144 104.431 148.144C103.653 148.144 102.949 147.952 102.319 147.568C101.69 147.184 101.194 146.645 100.831 145.952C100.469 145.259 100.287 144.469 100.287 143.584ZM107.711 143.6C107.711 142.939 107.578 142.363 107.311 141.872C107.045 141.381 106.682 141.008 106.223 140.752C105.775 140.485 105.279 140.352 104.735 140.352C104.191 140.352 103.695 140.48 103.247 140.736C102.799 140.992 102.442 141.365 102.175 141.856C101.909 142.347 101.775 142.923 101.775 143.584C101.775 144.256 101.909 144.843 102.175 145.344C102.442 145.835 102.799 146.213 103.247 146.48C103.695 146.736 104.191 146.864 104.735 146.864C105.279 146.864 105.775 146.736 106.223 146.48C106.682 146.213 107.045 145.835 107.311 145.344C107.578 144.843 107.711 144.261 107.711 143.6ZM113.26 136.16V148H111.804V136.16H113.26ZM122.103 140.432V145.6C122.103 146.027 122.194 146.331 122.375 146.512C122.556 146.683 122.871 146.768 123.319 146.768H124.391V148H123.079C122.268 148 121.66 147.813 121.255 147.44C120.85 147.067 120.647 146.453 120.647 145.6V140.432H119.511V139.232H120.647V137.024H122.103V139.232H124.391V140.432H122.103ZM134.315 143.28C134.315 143.557 134.299 143.851 134.267 144.16H127.259C127.312 145.024 127.606 145.701 128.139 146.192C128.683 146.672 129.339 146.912 130.107 146.912C130.736 146.912 131.259 146.768 131.675 146.48C132.102 146.181 132.4 145.787 132.571 145.296H134.139C133.904 146.139 133.435 146.827 132.731 147.36C132.027 147.883 131.152 148.144 130.107 148.144C129.275 148.144 128.528 147.957 127.867 147.584C127.216 147.211 126.704 146.683 126.331 146C125.958 145.307 125.771 144.507 125.771 143.6C125.771 142.693 125.952 141.899 126.315 141.216C126.678 140.533 127.184 140.011 127.835 139.648C128.496 139.275 129.254 139.088 130.107 139.088C130.939 139.088 131.675 139.269 132.315 139.632C132.955 139.995 133.446 140.496 133.787 141.136C134.139 141.765 134.315 142.48 134.315 143.28ZM132.811 142.976C132.811 142.421 132.688 141.947 132.443 141.552C132.198 141.147 131.862 140.843 131.435 140.64C131.019 140.427 130.555 140.32 130.043 140.32C129.307 140.32 128.678 140.555 128.155 141.024C127.643 141.493 127.35 142.144 127.275 142.976H132.811ZM135.853 143.584C135.853 142.688 136.034 141.904 136.397 141.232C136.76 140.549 137.256 140.021 137.885 139.648C138.525 139.275 139.234 139.088 140.013 139.088C140.781 139.088 141.448 139.253 142.013 139.584C142.578 139.915 143 140.331 143.277 140.832V139.232H144.749V148H143.277V146.368C142.989 146.88 142.557 147.307 141.981 147.648C141.416 147.979 140.754 148.144 139.997 148.144C139.218 148.144 138.514 147.952 137.885 147.568C137.256 147.184 136.76 146.645 136.397 145.952C136.034 145.259 135.853 144.469 135.853 143.584ZM143.277 143.6C143.277 142.939 143.144 142.363 142.877 141.872C142.61 141.381 142.248 141.008 141.789 140.752C141.341 140.485 140.845 140.352 140.301 140.352C139.757 140.352 139.261 140.48 138.813 140.736C138.365 140.992 138.008 141.365 137.741 141.856C137.474 142.347 137.341 142.923 137.341 143.584C137.341 144.256 137.474 144.843 137.741 145.344C138.008 145.835 138.365 146.213 138.813 146.48C139.261 146.736 139.757 146.864 140.301 146.864C140.845 146.864 141.341 146.736 141.789 146.48C142.248 146.213 142.61 145.835 142.877 145.344C143.144 144.843 143.277 144.261 143.277 143.6ZM157.913 139.072C158.596 139.072 159.204 139.216 159.737 139.504C160.271 139.781 160.692 140.203 161.001 140.768C161.311 141.333 161.465 142.021 161.465 142.832V148H160.025V143.04C160.025 142.165 159.807 141.499 159.369 141.04C158.943 140.571 158.361 140.336 157.625 140.336C156.868 140.336 156.265 140.581 155.817 141.072C155.369 141.552 155.145 142.251 155.145 143.168V148H153.705V143.04C153.705 142.165 153.487 141.499 153.049 141.04C152.623 140.571 152.041 140.336 151.305 140.336C150.548 140.336 149.945 140.581 149.497 141.072C149.049 141.552 148.825 142.251 148.825 143.168V148H147.369V139.232H148.825V140.496C149.113 140.037 149.497 139.685 149.977 139.44C150.468 139.195 151.007 139.072 151.593 139.072C152.329 139.072 152.98 139.237 153.545 139.568C154.111 139.899 154.532 140.384 154.809 141.024C155.055 140.405 155.46 139.925 156.025 139.584C156.591 139.243 157.22 139.072 157.913 139.072ZM17.8901 161.232L15.1541 170H13.6501L11.5381 163.04L9.42613 170H7.92213L5.17013 161.232H6.65813L8.67413 168.592L10.8501 161.232H12.3381L14.4661 168.608L16.4501 161.232H17.8901ZM20.2471 159.808C19.9698 159.808 19.7351 159.712 19.5431 159.52C19.3511 159.328 19.2551 159.093 19.2551 158.816C19.2551 158.539 19.3511 158.304 19.5431 158.112C19.7351 157.92 19.9698 157.824 20.2471 157.824C20.5138 157.824 20.7378 157.92 20.9191 158.112C21.1111 158.304 21.2071 158.539 21.2071 158.816C21.2071 159.093 21.1111 159.328 20.9191 159.52C20.7378 159.712 20.5138 159.808 20.2471 159.808ZM20.9511 161.232V170H19.4951V161.232H20.9511ZM25.3686 162.432V167.6C25.3686 168.027 25.4593 168.331 25.6406 168.512C25.822 168.683 26.1366 168.768 26.5846 168.768H27.6566V170H26.3446C25.534 170 24.926 169.813 24.5206 169.44C24.1153 169.067 23.9126 168.453 23.9126 167.6V162.432H22.7766V161.232H23.9126V159.024H25.3686V161.232H27.6566V162.432H25.3686ZM33.9328 161.072C34.5941 161.072 35.1914 161.216 35.7248 161.504C36.2581 161.781 36.6741 162.203 36.9728 162.768C37.2821 163.333 37.4368 164.021 37.4368 164.832V170H35.9968V165.04C35.9968 164.165 35.7781 163.499 35.3408 163.04C34.9034 162.571 34.3061 162.336 33.5488 162.336C32.7808 162.336 32.1674 162.576 31.7088 163.056C31.2608 163.536 31.0368 164.235 31.0368 165.152V170H29.5808V158.16H31.0368V162.48C31.3248 162.032 31.7194 161.685 32.2208 161.44C32.7328 161.195 33.3034 161.072 33.9328 161.072ZM47.5048 170.144C46.8328 170.144 46.2301 170.032 45.6968 169.808C45.1634 169.573 44.7421 169.253 44.4328 168.848C44.1234 168.432 43.9528 167.957 43.9208 167.424H45.4248C45.4674 167.861 45.6701 168.219 46.0328 168.496C46.4061 168.773 46.8914 168.912 47.4888 168.912C48.0434 168.912 48.4808 168.789 48.8008 168.544C49.1208 168.299 49.2808 167.989 49.2808 167.616C49.2808 167.232 49.1101 166.949 48.7688 166.768C48.4274 166.576 47.8994 166.389 47.1848 166.208C46.5341 166.037 46.0008 165.867 45.5848 165.696C45.1794 165.515 44.8274 165.253 44.5288 164.912C44.2408 164.56 44.0968 164.101 44.0968 163.536C44.0968 163.088 44.2301 162.677 44.4968 162.304C44.7634 161.931 45.1421 161.637 45.6328 161.424C46.1234 161.2 46.6834 161.088 47.3128 161.088C48.2834 161.088 49.0674 161.333 49.6648 161.824C50.2621 162.315 50.5821 162.987 50.6248 163.84H49.1688C49.1368 163.381 48.9501 163.013 48.6088 162.736C48.2781 162.459 47.8301 162.32 47.2648 162.32C46.7421 162.32 46.3261 162.432 46.0168 162.656C45.7074 162.88 45.5528 163.173 45.5528 163.536C45.5528 163.824 45.6434 164.064 45.8248 164.256C46.0168 164.437 46.2514 164.587 46.5288 164.704C46.8168 164.811 47.2114 164.933 47.7128 165.072C48.3421 165.243 48.8541 165.413 49.2488 165.584C49.6434 165.744 49.9794 165.989 50.2568 166.32C50.5448 166.651 50.6941 167.083 50.7048 167.616C50.7048 168.096 50.5714 168.528 50.3048 168.912C50.0381 169.296 49.6594 169.6 49.1688 169.824C48.6888 170.037 48.1341 170.144 47.5048 170.144ZM54.3761 162.848C54.6641 162.347 55.0908 161.931 55.6561 161.6C56.2321 161.259 56.8988 161.088 57.6561 161.088C58.4348 161.088 59.1388 161.275 59.7681 161.648C60.4081 162.021 60.9095 162.549 61.2721 163.232C61.6348 163.904 61.8161 164.688 61.8161 165.584C61.8161 166.469 61.6348 167.259 61.2721 167.952C60.9095 168.645 60.4081 169.184 59.7681 169.568C59.1388 169.952 58.4348 170.144 57.6561 170.144C56.9095 170.144 56.2481 169.979 55.6721 169.648C55.1068 169.307 54.6748 168.885 54.3761 168.384V174.16H52.9201V161.232H54.3761V162.848ZM60.3281 165.584C60.3281 164.923 60.1948 164.347 59.9281 163.856C59.6615 163.365 59.2988 162.992 58.8401 162.736C58.3921 162.48 57.8961 162.352 57.3521 162.352C56.8188 162.352 56.3228 162.485 55.8641 162.752C55.4161 163.008 55.0535 163.387 54.7761 163.888C54.5095 164.379 54.3761 164.949 54.3761 165.6C54.3761 166.261 54.5095 166.843 54.7761 167.344C55.0535 167.835 55.4161 168.213 55.8641 168.48C56.3228 168.736 56.8188 168.864 57.3521 168.864C57.8961 168.864 58.3921 168.736 58.8401 168.48C59.2988 168.213 59.6615 167.835 59.9281 167.344C60.1948 166.843 60.3281 166.256 60.3281 165.584ZM71.8926 165.28C71.8926 165.557 71.8766 165.851 71.8446 166.16H64.8366C64.89 167.024 65.1833 167.701 65.7166 168.192C66.2606 168.672 66.9166 168.912 67.6846 168.912C68.314 168.912 68.8366 168.768 69.2526 168.48C69.6793 168.181 69.978 167.787 70.1486 167.296H71.7166C71.482 168.139 71.0126 168.827 70.3086 169.36C69.6046 169.883 68.73 170.144 67.6846 170.144C66.8526 170.144 66.106 169.957 65.4446 169.584C64.794 169.211 64.282 168.683 63.9086 168C63.5353 167.307 63.3486 166.507 63.3486 165.6C63.3486 164.693 63.53 163.899 63.8926 163.216C64.2553 162.533 64.762 162.011 65.4126 161.648C66.074 161.275 66.8313 161.088 67.6846 161.088C68.5166 161.088 69.2526 161.269 69.8926 161.632C70.5326 161.995 71.0233 162.496 71.3646 163.136C71.7166 163.765 71.8926 164.48 71.8926 165.28ZM70.3886 164.976C70.3886 164.421 70.266 163.947 70.0206 163.552C69.7753 163.147 69.4393 162.843 69.0126 162.64C68.5966 162.427 68.1326 162.32 67.6206 162.32C66.8846 162.32 66.2553 162.555 65.7326 163.024C65.2206 163.493 64.9273 164.144 64.8526 164.976H70.3886ZM73.4305 165.6C73.4305 164.693 73.6118 163.904 73.9745 163.232C74.3372 162.549 74.8385 162.021 75.4785 161.648C76.1292 161.275 76.8705 161.088 77.7025 161.088C78.7798 161.088 79.6652 161.349 80.3585 161.872C81.0625 162.395 81.5265 163.12 81.7505 164.048H80.1825C80.0332 163.515 79.7398 163.093 79.3025 162.784C78.8758 162.475 78.3425 162.32 77.7025 162.32C76.8705 162.32 76.1985 162.608 75.6865 163.184C75.1745 163.749 74.9185 164.555 74.9185 165.6C74.9185 166.656 75.1745 167.472 75.6865 168.048C76.1985 168.624 76.8705 168.912 77.7025 168.912C78.3425 168.912 78.8758 168.763 79.3025 168.464C79.7292 168.165 80.0225 167.739 80.1825 167.184H81.7505C81.5158 168.08 81.0465 168.8 80.3425 169.344C79.6385 169.877 78.7585 170.144 77.7025 170.144C76.8705 170.144 76.1292 169.957 75.4785 169.584C74.8385 169.211 74.3372 168.683 73.9745 168C73.6118 167.317 73.4305 166.517 73.4305 165.6ZM84.6053 159.808C84.3279 159.808 84.0933 159.712 83.9013 159.52C83.7093 159.328 83.6133 159.093 83.6133 158.816C83.6133 158.539 83.7093 158.304 83.9013 158.112C84.0933 157.92 84.3279 157.824 84.6053 157.824C84.8719 157.824 85.0959 157.92 85.2773 158.112C85.4693 158.304 85.5653 158.539 85.5653 158.816C85.5653 159.093 85.4693 159.328 85.2773 159.52C85.0959 159.712 84.8719 159.808 84.6053 159.808ZM85.3093 161.232V170H83.8533V161.232H85.3093ZM91.5188 162.432H89.6788V170H88.2228V162.432H87.0868V161.232H88.2228V160.608C88.2228 159.627 88.4734 158.912 88.9748 158.464C89.4868 158.005 90.3028 157.776 91.4227 157.776V158.992C90.7828 158.992 90.3294 159.12 90.0628 159.376C89.8068 159.621 89.6788 160.032 89.6788 160.608V161.232H91.5188V162.432ZM94.1284 159.808C93.851 159.808 93.6164 159.712 93.4244 159.52C93.2324 159.328 93.1364 159.093 93.1364 158.816C93.1364 158.539 93.2324 158.304 93.4244 158.112C93.6164 157.92 93.851 157.824 94.1284 157.824C94.395 157.824 94.619 157.92 94.8004 158.112C94.9924 158.304 95.0884 158.539 95.0884 158.816C95.0884 159.093 94.9924 159.328 94.8004 159.52C94.619 159.712 94.395 159.808 94.1284 159.808ZM94.8324 161.232V170H93.3764V161.232H94.8324ZM96.9299 165.6C96.9299 164.693 97.1112 163.904 97.4739 163.232C97.8365 162.549 98.3379 162.021 98.9779 161.648C99.6285 161.275 100.37 161.088 101.202 161.088C102.279 161.088 103.165 161.349 103.858 161.872C104.562 162.395 105.026 163.12 105.25 164.048H103.682C103.533 163.515 103.239 163.093 102.802 162.784C102.375 162.475 101.842 162.32 101.202 162.32C100.37 162.32 99.6979 162.608 99.1859 163.184C98.6739 163.749 98.4179 164.555 98.4179 165.6C98.4179 166.656 98.6739 167.472 99.1859 168.048C99.6979 168.624 100.37 168.912 101.202 168.912C101.842 168.912 102.375 168.763 102.802 168.464C103.229 168.165 103.522 167.739 103.682 167.184H105.25C105.015 168.08 104.546 168.8 103.842 169.344C103.138 169.877 102.258 170.144 101.202 170.144C100.37 170.144 99.6285 169.957 98.9779 169.584C98.3379 169.211 97.8365 168.683 97.4739 168C97.1112 167.317 96.9299 166.517 96.9299 165.6ZM111.234 165.584C111.234 164.688 111.416 163.904 111.778 163.232C112.141 162.549 112.637 162.021 113.266 161.648C113.906 161.275 114.621 161.088 115.41 161.088C116.093 161.088 116.728 161.248 117.314 161.568C117.901 161.877 118.349 162.288 118.658 162.8V158.16H120.13V170H118.658V168.352C118.37 168.875 117.944 169.307 117.378 169.648C116.813 169.979 116.152 170.144 115.394 170.144C114.616 170.144 113.906 169.952 113.266 169.568C112.637 169.184 112.141 168.645 111.778 167.952C111.416 167.259 111.234 166.469 111.234 165.584ZM118.658 165.6C118.658 164.939 118.525 164.363 118.258 163.872C117.992 163.381 117.629 163.008 117.17 162.752C116.722 162.485 116.226 162.352 115.682 162.352C115.138 162.352 114.642 162.48 114.194 162.736C113.746 162.992 113.389 163.365 113.122 163.856C112.856 164.347 112.722 164.923 112.722 165.584C112.722 166.256 112.856 166.843 113.122 167.344C113.389 167.835 113.746 168.213 114.194 168.48C114.642 168.736 115.138 168.864 115.682 168.864C116.226 168.864 116.722 168.736 117.17 168.48C117.629 168.213 117.992 167.835 118.258 167.344C118.525 166.843 118.658 166.261 118.658 165.6ZM126.575 170.144C125.753 170.144 125.007 169.957 124.335 169.584C123.673 169.211 123.151 168.683 122.767 168C122.393 167.307 122.207 166.507 122.207 165.6C122.207 164.704 122.399 163.915 122.783 163.232C123.177 162.539 123.711 162.011 124.383 161.648C125.055 161.275 125.807 161.088 126.639 161.088C127.471 161.088 128.223 161.275 128.895 161.648C129.567 162.011 130.095 162.533 130.479 163.216C130.873 163.899 131.071 164.693 131.071 165.6C131.071 166.507 130.868 167.307 130.463 168C130.068 168.683 129.529 169.211 128.847 169.584C128.164 169.957 127.407 170.144 126.575 170.144ZM126.575 168.864C127.097 168.864 127.588 168.741 128.047 168.496C128.505 168.251 128.873 167.883 129.151 167.392C129.439 166.901 129.583 166.304 129.583 165.6C129.583 164.896 129.444 164.299 129.167 163.808C128.889 163.317 128.527 162.955 128.079 162.72C127.631 162.475 127.145 162.352 126.623 162.352C126.089 162.352 125.599 162.475 125.151 162.72C124.713 162.955 124.361 163.317 124.095 163.808C123.828 164.299 123.695 164.896 123.695 165.6C123.695 166.315 123.823 166.917 124.079 167.408C124.345 167.899 124.697 168.267 125.135 168.512C125.572 168.747 126.052 168.864 126.575 168.864ZM143.689 161.072C144.372 161.072 144.98 161.216 145.513 161.504C146.046 161.781 146.468 162.203 146.777 162.768C147.086 163.333 147.241 164.021 147.241 164.832V170H145.801V165.04C145.801 164.165 145.582 163.499 145.145 163.04C144.718 162.571 144.137 162.336 143.401 162.336C142.644 162.336 142.041 162.581 141.593 163.072C141.145 163.552 140.921 164.251 140.921 165.168V170H139.481V165.04C139.481 164.165 139.262 163.499 138.825 163.04C138.398 162.571 137.817 162.336 137.081 162.336C136.324 162.336 135.721 162.581 135.273 163.072C134.825 163.552 134.601 164.251 134.601 165.168V170H133.145V161.232H134.601V162.496C134.889 162.037 135.273 161.685 135.753 161.44C136.244 161.195 136.782 161.072 137.369 161.072C138.105 161.072 138.756 161.237 139.321 161.568C139.886 161.899 140.308 162.384 140.585 163.024C140.83 162.405 141.236 161.925 141.801 161.584C142.366 161.243 142.996 161.072 143.689 161.072ZM149.245 165.584C149.245 164.688 149.427 163.904 149.789 163.232C150.152 162.549 150.648 162.021 151.277 161.648C151.917 161.275 152.627 161.088 153.405 161.088C154.173 161.088 154.84 161.253 155.405 161.584C155.971 161.915 156.392 162.331 156.669 162.832V161.232H158.141V170H156.669V168.368C156.381 168.88 155.949 169.307 155.373 169.648C154.808 169.979 154.147 170.144 153.389 170.144C152.611 170.144 151.907 169.952 151.277 169.568C150.648 169.184 150.152 168.645 149.789 167.952C149.427 167.259 149.245 166.469 149.245 165.584ZM156.669 165.6C156.669 164.939 156.536 164.363 156.269 163.872C156.003 163.381 155.64 163.008 155.181 162.752C154.733 162.485 154.237 162.352 153.693 162.352C153.149 162.352 152.653 162.48 152.205 162.736C151.757 162.992 151.4 163.365 151.133 163.856C150.867 164.347 150.733 164.923 150.733 165.584C150.733 166.256 150.867 166.843 151.133 167.344C151.4 167.835 151.757 168.213 152.205 168.48C152.653 168.736 153.149 168.864 153.693 168.864C154.237 168.864 154.733 168.736 155.181 168.48C155.64 168.213 156.003 167.835 156.269 167.344C156.536 166.843 156.669 166.261 156.669 165.6ZM161.514 159.808C161.237 159.808 161.002 159.712 160.81 159.52C160.618 159.328 160.522 159.093 160.522 158.816C160.522 158.539 160.618 158.304 160.81 158.112C161.002 157.92 161.237 157.824 161.514 157.824C161.781 157.824 162.005 157.92 162.186 158.112C162.378 158.304 162.474 158.539 162.474 158.816C162.474 159.093 162.378 159.328 162.186 159.52C162.005 159.712 161.781 159.808 161.514 159.808ZM162.218 161.232V170H160.762V161.232H162.218ZM169.132 161.072C170.198 161.072 171.062 161.397 171.724 162.048C172.385 162.688 172.716 163.616 172.716 164.832V170H171.276V165.04C171.276 164.165 171.057 163.499 170.62 163.04C170.182 162.571 169.585 162.336 168.828 162.336C168.06 162.336 167.446 162.576 166.988 163.056C166.54 163.536 166.316 164.235 166.316 165.152V170H164.86V161.232H166.316V162.48C166.604 162.032 166.993 161.685 167.484 161.44C167.985 161.195 168.534 161.072 169.132 161.072ZM49.158 192L45.718 188.128V192H44.262V180.16H45.718V187.12L49.094 183.232H51.126L46.998 187.6L51.142 192H49.158ZM56.9284 183.072C57.995 183.072 58.859 183.397 59.5204 184.048C60.1817 184.688 60.5124 185.616 60.5124 186.832V192H59.0724V187.04C59.0724 186.165 58.8537 185.499 58.4164 185.04C57.979 184.571 57.3817 184.336 56.6244 184.336C55.8564 184.336 55.243 184.576 54.7844 185.056C54.3364 185.536 54.1124 186.235 54.1124 187.152V192H52.6564V183.232H54.1124V184.48C54.4004 184.032 54.7897 183.685 55.2804 183.44C55.7817 183.195 56.331 183.072 56.9284 183.072ZM66.8747 192.144C66.0534 192.144 65.3067 191.957 64.6347 191.584C63.9734 191.211 63.4507 190.683 63.0667 190C62.6934 189.307 62.5067 188.507 62.5067 187.6C62.5067 186.704 62.6987 185.915 63.0827 185.232C63.4774 184.539 64.0107 184.011 64.6827 183.648C65.3547 183.275 66.1067 183.088 66.9387 183.088C67.7707 183.088 68.5227 183.275 69.1947 183.648C69.8667 184.011 70.3947 184.533 70.7787 185.216C71.1734 185.899 71.3707 186.693 71.3707 187.6C71.3707 188.507 71.1681 189.307 70.7627 190C70.3681 190.683 69.8294 191.211 69.1467 191.584C68.4641 191.957 67.7067 192.144 66.8747 192.144ZM66.8747 190.864C67.3974 190.864 67.8881 190.741 68.3467 190.496C68.8054 190.251 69.1734 189.883 69.4507 189.392C69.7387 188.901 69.8827 188.304 69.8827 187.6C69.8827 186.896 69.7441 186.299 69.4667 185.808C69.1894 185.317 68.8267 184.955 68.3787 184.72C67.9307 184.475 67.4454 184.352 66.9227 184.352C66.3894 184.352 65.8987 184.475 65.4507 184.72C65.0134 184.955 64.6614 185.317 64.3947 185.808C64.1281 186.299 63.9947 186.896 63.9947 187.6C63.9947 188.315 64.1227 188.917 64.3787 189.408C64.6454 189.899 64.9974 190.267 65.4347 190.512C65.8721 190.747 66.3521 190.864 66.8747 190.864ZM85.1251 183.232L82.3891 192H80.8851L78.7731 185.04L76.6611 192H75.1571L72.4051 183.232H73.8931L75.9091 190.592L78.0851 183.232H79.5731L81.7011 190.608L83.6851 183.232H85.1251ZM88.1861 180.16V192H86.7301V180.16H88.1861ZM98.8276 187.28C98.8276 187.557 98.8116 187.851 98.7796 188.16H91.7716C91.825 189.024 92.1183 189.701 92.6516 190.192C93.1956 190.672 93.8516 190.912 94.6196 190.912C95.249 190.912 95.7716 190.768 96.1876 190.48C96.6143 190.181 96.913 189.787 97.0836 189.296H98.6516C98.417 190.139 97.9476 190.827 97.2436 191.36C96.5396 191.883 95.665 192.144 94.6196 192.144C93.7876 192.144 93.041 191.957 92.3796 191.584C91.729 191.211 91.217 190.683 90.8436 190C90.4703 189.307 90.2836 188.507 90.2836 187.6C90.2836 186.693 90.465 185.899 90.8276 185.216C91.1903 184.533 91.697 184.011 92.3476 183.648C93.009 183.275 93.7663 183.088 94.6196 183.088C95.4516 183.088 96.1876 183.269 96.8276 183.632C97.4676 183.995 97.9583 184.496 98.2996 185.136C98.6516 185.765 98.8276 186.48 98.8276 187.28ZM97.3236 186.976C97.3236 186.421 97.201 185.947 96.9556 185.552C96.7103 185.147 96.3743 184.843 95.9476 184.64C95.5316 184.427 95.0676 184.32 94.5556 184.32C93.8196 184.32 93.1903 184.555 92.6676 185.024C92.1556 185.493 91.8623 186.144 91.7876 186.976H97.3236ZM100.365 187.584C100.365 186.688 100.547 185.904 100.909 185.232C101.272 184.549 101.768 184.021 102.397 183.648C103.037 183.275 103.752 183.088 104.541 183.088C105.224 183.088 105.859 183.248 106.445 183.568C107.032 183.877 107.48 184.288 107.789 184.8V180.16H109.261V192H107.789V190.352C107.501 190.875 107.075 191.307 106.509 191.648C105.944 191.979 105.283 192.144 104.525 192.144C103.747 192.144 103.037 191.952 102.397 191.568C101.768 191.184 101.272 190.645 100.909 189.952C100.547 189.259 100.365 188.469 100.365 187.584ZM107.789 187.6C107.789 186.939 107.656 186.363 107.389 185.872C107.123 185.381 106.76 185.008 106.301 184.752C105.853 184.485 105.357 184.352 104.813 184.352C104.269 184.352 103.773 184.48 103.325 184.736C102.877 184.992 102.52 185.365 102.253 185.856C101.987 186.347 101.853 186.923 101.853 187.584C101.853 188.256 101.987 188.843 102.253 189.344C102.52 189.835 102.877 190.213 103.325 190.48C103.773 190.736 104.269 190.864 104.813 190.864C105.357 190.864 105.853 190.736 106.301 190.48C106.76 190.213 107.123 189.835 107.389 189.344C107.656 188.843 107.789 188.261 107.789 187.6ZM115.498 183.088C116.255 183.088 116.917 183.253 117.482 183.584C118.058 183.915 118.485 184.331 118.762 184.832V183.232H120.234V192.192C120.234 192.992 120.063 193.701 119.722 194.32C119.381 194.949 118.89 195.44 118.25 195.792C117.621 196.144 116.885 196.32 116.042 196.32C114.89 196.32 113.93 196.048 113.162 195.504C112.394 194.96 111.941 194.219 111.802 193.28H113.242C113.402 193.813 113.733 194.24 114.234 194.56C114.735 194.891 115.338 195.056 116.042 195.056C116.842 195.056 117.493 194.805 117.994 194.304C118.506 193.803 118.762 193.099 118.762 192.192V190.352C118.474 190.864 118.047 191.291 117.482 191.632C116.917 191.973 116.255 192.144 115.498 192.144C114.719 192.144 114.01 191.952 113.37 191.568C112.741 191.184 112.245 190.645 111.882 189.952C111.519 189.259 111.338 188.469 111.338 187.584C111.338 186.688 111.519 185.904 111.882 185.232C112.245 184.549 112.741 184.021 113.37 183.648C114.01 183.275 114.719 183.088 115.498 183.088ZM118.762 187.6C118.762 186.939 118.629 186.363 118.362 185.872C118.095 185.381 117.733 185.008 117.274 184.752C116.826 184.485 116.33 184.352 115.786 184.352C115.242 184.352 114.746 184.48 114.298 184.736C113.85 184.992 113.493 185.365 113.226 185.856C112.959 186.347 112.826 186.923 112.826 187.584C112.826 188.256 112.959 188.843 113.226 189.344C113.493 189.835 113.85 190.213 114.298 190.48C114.746 190.736 115.242 190.864 115.786 190.864C116.33 190.864 116.826 190.736 117.274 190.48C117.733 190.213 118.095 189.835 118.362 189.344C118.629 188.843 118.762 188.261 118.762 187.6ZM130.854 187.28C130.854 187.557 130.838 187.851 130.806 188.16H123.798C123.852 189.024 124.145 189.701 124.678 190.192C125.222 190.672 125.878 190.912 126.646 190.912C127.276 190.912 127.798 190.768 128.214 190.48C128.641 190.181 128.94 189.787 129.11 189.296H130.678C130.444 190.139 129.974 190.827 129.27 191.36C128.566 191.883 127.692 192.144 126.646 192.144C125.814 192.144 125.068 191.957 124.406 191.584C123.756 191.211 123.244 190.683 122.87 190C122.497 189.307 122.31 188.507 122.31 187.6C122.31 186.693 122.492 185.899 122.854 185.216C123.217 184.533 123.724 184.011 124.374 183.648C125.036 183.275 125.793 183.088 126.646 183.088C127.478 183.088 128.214 183.269 128.854 183.632C129.494 183.995 129.985 184.496 130.326 185.136C130.678 185.765 130.854 186.48 130.854 187.28ZM129.35 186.976C129.35 186.421 129.228 185.947 128.982 185.552C128.737 185.147 128.401 184.843 127.974 184.64C127.558 184.427 127.094 184.32 126.582 184.32C125.846 184.32 125.217 184.555 124.694 185.024C124.182 185.493 123.889 186.144 123.814 186.976H129.35Z" fill="#424040"/>
<path d="M138.694 64.0225H126.513C116.969 64.0225 109.153 71.8046 109.153 81.3482V100.452C109.153 106.178 113.864 110.869 119.59 110.869H145.617C151.343 110.869 155.999 106.178 155.999 100.452V81.3482C155.999 71.8044 148.237 64.0225 138.694 64.0225Z" fill="#225A41"/>
<path d="M132.603 64.0225H126.513C116.969 64.0225 109.153 71.8047 109.153 81.3482V100.452C109.153 106.178 113.864 110.869 119.59 110.869H132.603V64.0225Z" fill="#43A77A"/>
<path d="M132.604 28.5322C124.02 28.5322 117.037 35.5154 117.037 44.0987C117.037 52.6822 124.02 59.6654 132.604 59.6654C141.187 59.6654 148.17 52.6822 148.17 44.0987C148.17 35.5157 141.187 28.5322 132.604 28.5322Z" fill="#225A41"/>
<path d="M132.604 28.5322C124.02 28.5322 117.037 35.5154 117.037 44.0987C117.037 52.6822 124.02 59.6654 132.604 59.6654V28.5322Z" fill="#43A77A"/>
<path d="M65.5402 64.0225H53.3595C43.8159 64.0225 36 71.8044 36 81.3479V100.452C36 106.178 40.7102 110.868 46.4365 110.868H72.4634C78.1896 110.868 82.8462 106.178 82.8462 100.452V81.3479C82.8462 71.8044 75.0839 64.0225 65.5402 64.0225Z" fill="#225A41"/>
<path d="M59.4499 64.0225H53.3595C43.8159 64.0225 36 71.8047 36 81.3482V100.452C36 106.178 40.7102 110.869 46.4365 110.869H59.4499C59.4499 110.869 59.4499 64.0225 59.4499 64.0225Z" fill="#4C8F72"/>
<path d="M106.599 55.0234H85.4014C75.8579 55.0234 68.0938 62.7876 68.0938 72.3311V107.375C68.0938 109.287 69.6437 110.837 71.5552 110.837H120.445C122.357 110.837 123.907 109.287 123.907 107.375V72.3311C123.907 62.7876 116.143 55.0234 106.599 55.0234Z" fill="#225A41"/>
<path d="M96.1173 55.0234H85.4014C75.8579 55.0234 68.0938 62.7876 68.0938 72.3311V107.375C68.0938 109.287 69.6437 110.837 71.5552 110.837H96.1173V55.0234Z" fill="#4C8F72"/>
<path d="M95.9994 9.13086C84.5221 9.13086 75.1846 18.4684 75.1846 29.9457C75.1846 41.423 84.5218 50.7605 95.9994 50.7605C107.477 50.7605 116.814 41.423 116.814 29.9457C116.814 18.4684 107.477 9.13086 95.9994 9.13086Z" fill="#225A41"/>
<path d="M95.9994 9.13086C84.5221 9.13086 75.1846 18.4684 75.1846 29.9457C75.1846 41.423 84.5218 50.7605 95.9994 50.7605V9.13086Z" fill="#4C8F72"/>
<path d="M59.4503 28.5322C50.8668 28.5322 43.8838 35.5154 43.8838 44.0987C43.8838 52.6822 50.8668 59.6654 59.4503 59.6654C68.0338 59.6654 75.0168 52.6822 75.0168 44.0987C75.0168 35.5157 68.0338 28.5322 59.4503 28.5322Z" fill="#225A41"/>
<path d="M59.4503 28.5322C50.8668 28.5322 43.8838 35.5154 43.8838 44.0987C43.8838 52.6822 50.8668 59.6654 59.4503 59.6654V28.5322Z" fill="#4C8F72"/>
</svg>
