<svg width="60" height="57" viewBox="0 0 60 57" fill="none" xmlns="http://www.w3.org/2000/svg">
<path d="M38.7609 0H11.2393C8.58701 0 6.4292 2.15781 6.4292 4.81006V45.1899C6.4292 47.8422 8.58701 50 11.2393 50H38.7609C41.4132 50 43.571 47.8422 43.571 45.1899V4.81006C43.571 2.15781 41.4132 0 38.7609 0ZM13.0219 8.31016C13.0219 7.50117 13.6777 6.84531 14.4867 6.84531H35.5134C36.3224 6.84531 36.9782 7.50117 36.9782 8.31016V11.2025C36.9782 12.0115 36.3224 12.6674 35.5134 12.6674H14.4867C13.6777 12.6674 13.0219 12.0115 13.0219 11.2025V8.31016ZM17.9536 41.2027C17.9536 42.0117 17.2978 42.6676 16.4888 42.6676H14.4868C13.6778 42.6676 13.022 42.0117 13.022 41.2027V39.8148C13.022 39.0059 13.6778 38.35 14.4868 38.35H16.4888C17.2978 38.35 17.9536 39.0059 17.9536 39.8148V41.2027ZM17.9536 32.5338C17.9536 33.3428 17.2978 33.9986 16.4888 33.9986H14.4868C13.6778 33.9986 13.022 33.3428 13.022 32.5338V31.1459C13.022 30.3369 13.6778 29.6811 14.4868 29.6811H16.4888C17.2978 29.6811 17.9536 30.3369 17.9536 31.1459V32.5338ZM27.5859 41.2027C27.5859 42.0117 26.9301 42.6676 26.1211 42.6676H24.1191C23.3101 42.6676 22.6543 42.0117 22.6543 41.2027V39.8148C22.6543 39.0059 23.3101 38.35 24.1191 38.35H26.1211C26.9301 38.35 27.5859 39.0059 27.5859 39.8148V41.2027ZM27.5859 32.5338C27.5859 33.3428 26.9301 33.9986 26.1211 33.9986H24.1191C23.3101 33.9986 22.6543 33.3428 22.6543 32.5338V31.1459C22.6543 30.3369 23.3101 29.6811 24.1191 29.6811H26.1211C26.9301 29.6811 27.5859 30.3369 27.5859 31.1459V32.5338ZM27.5859 23.8647C27.5859 24.6738 26.9301 25.3296 26.1211 25.3296H14.4867C13.6777 25.3296 13.0219 24.6737 13.0219 23.8647V22.4769C13.0219 21.6679 13.6777 21.012 14.4867 21.012H26.1211C26.9301 21.012 27.5859 21.6679 27.5859 22.4769V23.8647ZM37.2183 41.2027C37.2183 42.0117 36.5624 42.6676 35.7534 42.6676H33.7515C32.9425 42.6676 32.2866 42.0117 32.2866 41.2027V39.8148C32.2866 39.0059 32.9425 38.35 33.7515 38.35H35.7534C36.5624 38.35 37.2183 39.0059 37.2183 39.8148V41.2027ZM37.2183 32.5338C37.2183 33.3428 36.5624 33.9986 35.7534 33.9986H33.7515C32.9425 33.9986 32.2866 33.3428 32.2866 32.5338V31.1459C32.2866 30.3369 32.9425 29.6811 33.7515 29.6811H35.7534C36.5624 29.6811 37.2183 30.3369 37.2183 31.1459V32.5338ZM37.2183 23.8647C37.2183 24.6738 36.5624 25.3296 35.7534 25.3296H33.7515C32.9425 25.3296 32.2866 24.6737 32.2866 23.8647V22.4769C32.2866 21.6679 32.9425 21.012 33.7515 21.012H35.7534C36.5624 21.012 37.2183 21.6679 37.2183 22.4769V23.8647Z" fill="#225A41"/>
<path d="M55.4666 53.3161H30.5332L29.3999 39.1494H56.5999L55.4666 53.3161Z" fill="#43A77A"/>
<path d="M26 55.583H60V56.7163H26V55.583Z" fill="#603813"/>
<path d="M27.6997 36.8828H58.2997V39.1495H27.6997V36.8828Z" fill="#43A77A"/>
<path d="M32.626 51.0494H53.3741L53.6461 47.6494H32.354L32.626 51.0494Z" fill="#FFA349"/>
<path d="M54.1447 41.417H31.8555L32.0821 44.2503H53.9181L54.1447 41.417Z" fill="#FFA349"/>
<path d="M32.082 44.25L32.354 47.65H53.6461L53.9181 44.25H32.082Z" fill="#FFE24A"/>
<path d="M28.2666 36.8832L29.3999 34.6165L29.9666 31.7832L32.2333 32.3499L35.0666 34.0499L35.6333 36.3165V36.8832H28.2666Z" fill="#808080"/>
<path d="M35.6331 36.8828L35.0664 34.0495L35.6331 31.2161L39.0331 28.3828H45.2664L47.5331 33.4828L49.7997 35.1828L50.3664 36.8828H35.6331Z" fill="#4D4D4D"/>
<path d="M47.5332 33.483L49.7999 30.083L52.6332 30.6497L54.8999 32.3497L57.1665 33.483L58.2999 35.183L57.1665 36.883H50.3665L49.7999 35.183L47.5332 33.483Z" fill="#666666"/>
<path d="M34.5001 27.8164L39.0334 28.3831L35.6334 31.2164L35.0667 34.0497L32.2334 32.3497L32.8001 30.6497L34.5001 27.8164Z" fill="#666666"/>
<path d="M41.8667 28.3832L44.7 26.6832L45.2667 24.4165L47.5334 23.2832L49.8 25.5499L52.6334 26.6832L53.7667 28.9499L52.6334 30.6499L49.8 30.0832L47.5334 33.4832L45.2667 28.3832H41.8667Z" fill="#808080"/>
<path d="M36.5151 28.0685L37.9 25.5503L40.1667 24.417H45.2666L44.7 26.6837L41.8666 28.3837H39.0333L36.5151 28.0685Z" fill="#4D4D4D"/>
<path d="M52.0666 52.7506C52.0666 54.6282 50.5442 56.1506 48.6666 56.1506C46.789 56.1506 45.2666 54.6282 45.2666 52.7506C45.2666 50.8729 46.789 49.3506 48.6666 49.3506C50.5442 49.3506 52.0666 50.8729 52.0666 52.7506Z" fill="#666666"/>
<path d="M49.7999 52.7505C49.7999 53.3764 49.2924 53.8839 48.6665 53.8839C48.0407 53.8839 47.5332 53.3764 47.5332 52.7505C47.5332 52.1246 48.0407 51.6172 48.6665 51.6172C49.2924 51.6172 49.7999 52.1246 49.7999 52.7505Z" fill="#B3B3B3"/>
<path d="M40.7336 52.7506C40.7336 54.6282 39.2112 56.1506 37.3336 56.1506C35.456 56.1506 33.9336 54.6282 33.9336 52.7506C33.9336 50.8729 35.456 49.3506 37.3336 49.3506C39.2112 49.3506 40.7336 50.8729 40.7336 52.7506Z" fill="#666666"/>
<path d="M38.4664 52.7505C38.4664 53.3764 37.9589 53.8839 37.333 53.8839C36.7072 53.8839 36.1997 53.3764 36.1997 52.7505C36.1997 52.1246 36.7072 51.6172 37.333 51.6172C37.9589 51.6172 38.4664 52.1246 38.4664 52.7505Z" fill="#B3B3B3"/>
</svg>
