<svg width="120" height="120" viewBox="0 0 120 120" fill="none" xmlns="http://www.w3.org/2000/svg">
<path d="M79.8378 26.8678C79.2594 24.8433 78.4529 22.9155 77.45 21.112L81.1611 17.4009C82.0763 16.4857 82.0763 15.0016 81.1611 14.0864L73.8087 6.7343C72.8935 5.81906 71.4094 5.81906 70.4942 6.7343L66.7831 10.4454C64.9794 9.44227 63.0516 8.63578 61.0271 8.05758V2.34375C61.0271 1.0493 59.9778 0 58.6834 0H48.2855C46.9911 0 45.9418 1.0493 45.9418 2.34375V8.05734C43.9173 8.63578 41.9895 9.44227 40.1858 10.4452L36.4747 6.73406C35.5595 5.81883 34.0754 5.81883 33.1602 6.73406L25.8078 14.0862C24.8926 15.0014 24.8926 16.4855 25.8078 17.4007L29.5189 21.1118C28.516 22.9155 27.7095 24.8433 27.1311 26.8676H21.8867C20.5923 26.8676 19.543 27.9169 19.543 29.2113V44.2969H42.4168C40.4023 41.7246 39.4224 38.6672 39.4224 35.625C39.4224 27.8749 45.7243 21.5691 53.473 21.5625C60.9741 21.5562 67.2371 27.5559 67.5362 35.0513C67.67 38.4075 66.6273 41.6538 64.5551 44.2969H87.4269V29.2116C87.4269 27.9171 86.3776 26.8678 85.0831 26.8678H79.8378Z" fill="#3E5959"/>
<path d="M87.4266 29.2125V44.2969H64.5539C66.6258 41.6531 67.6687 38.407 67.5352 35.0508C67.2375 27.5602 60.9797 21.5602 53.4844 21.5625V0H58.6828C59.9766 0 61.0266 1.05 61.0266 2.34375V8.05781C63.0516 8.63672 64.9805 9.44297 66.7828 10.4461L70.493 6.73359C71.4094 5.81953 72.893 5.81953 73.8094 6.73359L81.1617 14.0859C82.0758 15.0023 82.0758 16.4859 81.1617 17.4L77.4492 21.1125C78.4523 22.9148 79.2586 24.8438 79.8375 26.8687H85.0828C86.3766 26.8687 87.4266 27.9164 87.4266 29.2125Z" fill="#43A77A"/>
<path d="M107.41 77.7659H96.7059V94.9338C96.7059 96.2283 95.6566 97.2776 94.3621 97.2776H82.1339V117.656C82.1339 118.951 81.0846 120 79.7901 120H42.2435C40.949 120 39.8997 118.951 39.8997 117.656V95.7438C17.4743 89.3998 4.98863 65.5013 12.3672 43.5581C12.689 42.6009 13.5832 41.9531 14.5928 41.9531H92.3732C93.3881 41.9531 94.2796 42.6089 94.6024 43.571C95.8293 47.2303 96.55 51.1223 96.6813 55.1641L109.358 74.119C110.399 75.6764 109.283 77.7659 107.41 77.7659Z" fill="#3D7D61"/>
<path d="M107.409 77.7656H96.7055V94.9336C96.7055 96.2273 95.6555 97.2773 94.3617 97.2773H82.1344V117.656C82.1344 118.95 81.0844 120 79.7906 120H53.4844V41.9531H92.3719C93.3891 41.9531 94.2797 42.6094 94.6031 43.5703C95.8289 47.2312 96.5508 51.1219 96.682 55.1648L109.357 74.1187C110.4 75.6773 109.282 77.7656 107.409 77.7656Z" fill="#225A41"/>
</svg>
