<svg width="120" height="120" viewBox="0 0 120 120" fill="none" xmlns="http://www.w3.org/2000/svg"> 
<path d="M96.3721 73.7139H99.8877V81.4356H96.3721V73.7139Z" fill="#225A41"/> 
<path d="M96.3721 96.5889H99.8877V104.311H96.3721V96.5889Z" fill="#225A41"/> 
<path d="M98.1309 31.8652C97.1598 31.8652 96.373 32.6523 96.373 33.623V36.4355C96.373 37.4063 97.1598 38.1934 98.1309 38.1934C99.1019 38.1934 99.8887 37.4063 99.8887 36.4355V33.623C99.8887 32.6523 99.1016 31.8652 98.1309 31.8652Z" fill="#225A41"/> 
<path d="M91.0225 22.8896H87.5381C87.5871 23.5201 87.6145 24.1539 87.6145 24.7846C87.6145 25.3239 87.5948 25.8655 87.5589 26.4053H91.0225C91.9936 26.4053 92.7804 25.6182 92.7804 24.6475C92.7804 23.6767 91.9936 22.8896 91.0225 22.8896Z" fill="#225A41"/> 
<path d="M98.0931 29.5233C98.174 29.5233 98.2556 29.5177 98.3378 29.5062C99.2995 29.3724 99.9703 28.4846 99.8367 27.5229C99.6414 26.12 98.9135 24.87 97.7868 24.0033C97.0169 23.4113 95.9135 23.5554 95.3217 24.3249C94.7299 25.0943 94.8735 26.198 95.643 26.79C96.0344 27.091 96.2871 27.5234 96.3543 28.0076C96.4769 28.887 97.2299 29.5233 98.0931 29.5233Z" fill="#225A41"/> 
<path d="M98.1309 49.209C97.1598 49.209 96.373 49.996 96.373 50.9668V53.7793C96.373 54.7501 97.1598 55.5371 98.1309 55.5371C99.1019 55.5371 99.8887 54.7501 99.8887 53.7793V50.9668C99.8887 49.996 99.1016 49.209 98.1309 49.209Z" fill="#225A41"/> 
<path d="M98.1309 40.5371C97.1598 40.5371 96.373 41.3241 96.373 42.2949V45.1074C96.373 46.0782 97.1598 46.8652 98.1309 46.8652C99.1019 46.8652 99.8887 46.0782 99.8887 45.1074V42.2949C99.8887 41.3241 99.1016 40.5371 98.1309 40.5371Z" fill="#225A41"/> 
<path d="M43.2012 110.129H40.3887C39.4179 110.129 38.6309 110.916 38.6309 111.887C38.6309 112.857 39.4179 113.645 40.3887 113.645H43.2012C44.172 113.645 44.959 112.857 44.959 111.887C44.959 110.916 44.172 110.129 43.2012 110.129Z" fill="#225A41"/> 
<path d="M34.5283 110.129H34.4163C33.9461 110.129 33.4973 109.954 33.1523 109.635C32.4393 108.977 31.327 109.021 30.6684 109.734C30.0098 110.448 30.0544 111.56 30.7676 112.218C31.7639 113.138 33.0597 113.645 34.4163 113.645H34.5283C35.4991 113.645 36.2861 112.858 36.2861 111.887C36.2861 110.916 35.4991 110.129 34.5283 110.129Z" fill="#225A41"/> 
<path d="M32.5527 105.396V102.584C32.5527 101.613 31.7657 100.826 30.7949 100.826C29.8241 100.826 29.0371 101.613 29.0371 102.584V105.396C29.0371 106.367 29.8241 107.154 30.7949 107.154C31.7657 107.154 32.5527 106.367 32.5527 105.396Z" fill="#225A41"/> 
<path d="M30.7949 98.4824C31.7657 98.4824 32.5527 97.6954 32.5527 96.7246V93.9121C32.5527 92.9413 31.7657 92.1543 30.7949 92.1543C29.8241 92.1543 29.0371 92.9413 29.0371 93.9121V96.7246C29.0371 97.6954 29.8241 98.4824 30.7949 98.4824Z" fill="#225A41"/> 
<path d="M60.5439 110.129H57.7314C56.7607 110.129 55.9736 110.916 55.9736 111.887C55.9736 112.857 56.7607 113.645 57.7314 113.645H60.5439C61.515 113.645 62.3018 112.857 62.3018 111.887C62.3018 110.916 61.515 110.129 60.5439 110.129Z" fill="#225A41"/> 
<path d="M76.4946 110.129H75.0762C74.1052 110.129 73.3184 110.916 73.3184 111.887C73.3184 112.857 74.1052 113.645 75.0762 113.645H76.4946V110.129Z" fill="#225A41"/> 
<path d="M69.2168 110.129H66.4043C65.4333 110.129 64.6465 110.916 64.6465 111.887C64.6465 112.857 65.4333 113.645 66.4043 113.645H69.2168C70.1878 113.645 70.9746 112.857 70.9746 111.887C70.9746 110.916 70.1878 110.129 69.2168 110.129Z" fill="#225A41"/> 
<path d="M51.8721 110.129H49.0596C48.0888 110.129 47.3018 110.916 47.3018 111.887C47.3018 112.857 48.0888 113.645 49.0596 113.645H51.8721C52.8429 113.645 53.6299 112.857 53.6299 111.887C53.6299 110.916 52.8429 110.129 51.8721 110.129Z" fill="#225A41"/> 
<path d="M38.9852 88.4521C38.9852 80.762 45.2414 74.5061 52.9312 74.5061C52.9469 74.5061 52.9622 74.5073 52.9776 74.5073V40.7678L49.9554 43.7901C49.7355 44.0099 49.4437 44.1309 49.1332 44.1309C48.8763 44.1309 48.6342 44.0479 48.4331 43.8904C46.8804 42.6747 45.4765 41.271 44.2608 39.718C43.9048 39.2634 43.9481 38.609 44.3611 38.1958L47.8807 34.6762C48.3855 34.1716 48.4987 33.4021 48.1624 32.7618C47.6822 31.8475 47.283 30.8828 46.9758 29.8952C46.7609 29.2049 46.1372 28.7413 45.4233 28.7413H40.4437C39.8597 28.7413 39.3666 28.3094 39.2967 27.7366C39.1781 26.7618 39.1179 25.769 39.1179 24.7855C39.1179 24.7398 39.1198 24.6941 39.12 24.6484H11.753C11.1127 24.6484 10.4986 24.9027 10.0458 25.3555L0.707109 34.6942C0.254297 35.147 0 35.7611 0 36.4014V88.5873C0 89.9209 1.08094 91.0019 2.41453 91.0019H39.2231C39.0694 90.1745 38.9852 89.3233 38.9852 88.4521V88.4521Z" fill="#3E5959"/> 
<path d="M10.0202 88.5866V36.4007C10.0202 35.7604 10.2745 35.1461 10.7273 34.6932L20.066 25.3546C20.5188 24.9018 21.1329 24.6475 21.7732 24.6475H11.753C11.1127 24.6475 10.4986 24.9018 10.0458 25.3546L0.707109 34.6935C0.254297 35.1463 0 35.7604 0 36.4007V88.5866C0 89.9202 1.08094 91.0011 2.41453 91.0011H12.4348C11.1012 91.0011 10.0202 89.9202 10.0202 88.5866V88.5866Z" fill="#225A41"/> 
<path d="M39.0456 43.3467H13.9307C12.9599 43.3467 12.1729 42.5596 12.1729 41.5889C12.1729 40.6181 12.9599 39.8311 13.9307 39.8311H39.0456C40.0164 39.8311 40.8034 40.6181 40.8034 41.5889C40.8034 42.5596 40.0164 43.3467 39.0456 43.3467Z" fill="white"/> 
<path d="M39.0456 52.1201H13.9307C12.9599 52.1201 12.1729 51.3331 12.1729 50.3623C12.1729 49.3915 12.9599 48.6045 13.9307 48.6045H39.0456C40.0164 48.6045 40.8034 49.3915 40.8034 50.3623C40.8034 51.3331 40.0164 52.1201 39.0456 52.1201Z" fill="white"/> 
<path d="M39.0456 60.8545H13.9307C12.9599 60.8545 12.1729 60.0675 12.1729 59.0967C12.1729 58.1259 12.9599 57.3389 13.9307 57.3389H39.0456C40.0164 57.3389 40.8034 58.1259 40.8034 59.0967C40.8034 60.0675 40.0164 60.8545 39.0456 60.8545Z" fill="white"/> 
<path d="M39.0456 69.667H13.9307C12.9599 69.667 12.1729 68.88 12.1729 67.9092C12.1729 66.9384 12.9599 66.1514 13.9307 66.1514H39.0456C40.0164 66.1514 40.8034 66.9384 40.8034 67.9092C40.8034 68.88 40.0164 69.667 39.0456 69.667Z" fill="white"/> 
<path d="M25.1891 78.4404H13.9307C12.9599 78.4404 12.1729 77.6534 12.1729 76.6826C12.1729 75.7118 12.9599 74.9248 13.9307 74.9248H25.1891C26.1599 74.9248 26.9469 75.7118 26.9469 76.6826C26.9469 77.6534 26.1599 78.4404 25.1891 78.4404Z" fill="white"/> 
<path d="M52.9314 102.631C60.763 102.631 67.1117 96.2825 67.1117 88.4509C67.1117 80.6193 60.763 74.2705 52.9314 74.2705C45.0998 74.2705 38.751 80.6193 38.751 88.4509C38.751 96.2825 45.0998 102.631 52.9314 102.631Z" fill="#225A41"/> 
<path d="M46.8505 88.4509C46.8505 82.0269 51.1234 76.6037 56.9811 74.8607C55.6975 74.4786 54.339 74.2705 52.9314 74.2705C45.0997 74.2705 38.751 80.6193 38.751 88.4509C38.751 96.2825 45.0997 102.631 52.9314 102.631C54.339 102.631 55.6975 102.423 56.9811 102.041C51.1234 100.298 46.8505 94.8749 46.8505 88.4509V88.4509Z" fill="#32654F"/> 
<path d="M52.0307 94.2182C51.5809 94.2182 51.1309 94.0466 50.7878 93.7032L45.2795 88.195C44.593 87.5085 44.593 86.3954 45.2795 85.7092C45.966 85.0227 47.079 85.0227 47.7653 85.7092L52.0307 89.9746L58.0977 83.9075C58.7842 83.221 59.897 83.2208 60.5835 83.9075C61.27 84.594 61.27 85.7071 60.5835 86.3933L53.2736 93.7035C52.9302 94.0466 52.4804 94.2182 52.0307 94.2182V94.2182Z" fill="white"/> 
<path d="M79.0163 15.0599L82.5359 11.5403C83.03 11.0463 83.0855 10.258 82.655 9.70797C81.4268 8.13906 80.0117 6.72367 78.4425 5.49555C77.8924 5.065 77.1042 5.12055 76.6102 5.61461L73.0906 9.13422C72.657 9.56781 71.9939 9.65922 71.4509 9.37422C70.5279 8.88953 69.5562 8.4857 68.5449 8.17117C67.9596 7.9893 67.5558 7.45539 67.5558 6.84274V1.86273C67.5558 1.1643 67.0385 0.567578 66.3453 0.483203C65.3686 0.364375 64.3744 0.302734 63.3659 0.302734C62.3574 0.302734 61.3629 0.364375 60.3865 0.483203C59.6932 0.567578 59.1757 1.1643 59.1757 1.86273V6.8425C59.1757 7.45539 58.7719 7.98906 58.1867 8.17094C57.1753 8.48547 56.2034 8.8893 55.2807 9.37399C54.7376 9.65922 54.0746 9.56781 53.641 9.13399L50.1214 5.61438C49.6273 5.12031 48.8391 5.06477 48.289 5.49531C46.7201 6.72344 45.3047 8.1386 44.0766 9.70774C43.6461 10.2578 43.7016 11.046 44.1957 11.5401L47.7153 15.0597C48.1489 15.4933 48.2403 16.1563 47.9553 16.6994C47.4706 17.6223 47.0668 18.5941 46.7522 19.6054C46.5703 20.1906 46.0364 20.5945 45.4238 20.5945H40.4438C39.7453 20.5945 39.1486 21.1117 39.0643 21.805C38.9454 22.7816 38.8838 23.7759 38.8838 24.7844C38.8838 25.7931 38.9454 26.7874 39.0643 27.7638C39.1486 28.457 39.7453 28.9743 40.4438 28.9743H45.4236C46.0364 28.9743 46.5701 29.3781 46.752 29.9634C47.0665 30.9747 47.4703 31.9466 47.955 32.8694C48.2403 33.4124 48.1489 34.0755 47.715 34.5091L44.1954 38.0287C43.7014 38.5227 43.6458 39.3109 44.0764 39.861C45.3045 41.4299 46.7196 42.8453 48.2888 44.0734C48.8389 44.504 49.6271 44.4484 50.1211 43.9544L53.6407 40.4348C54.0743 40.0012 54.7374 39.9098 55.2804 40.1948C56.2034 40.6795 57.1751 41.0833 58.1864 41.3978C58.7717 41.5797 59.1755 42.1136 59.1755 42.7263V47.706C59.1755 48.4045 59.6928 49.0012 60.3863 49.0856C61.3629 49.2044 62.3571 49.266 63.3657 49.266C64.3742 49.266 65.3686 49.2044 66.345 49.0856C67.0383 49.0012 67.5556 48.4045 67.5556 47.706V42.7263C67.5556 42.1134 67.9594 41.5797 68.5446 41.3978C69.556 41.0833 70.5279 40.6795 71.4507 40.1948C71.9937 39.9095 72.6567 40.0009 73.0903 40.4348L76.6099 43.9544C77.104 44.4484 77.8922 44.504 78.4423 44.0734C80.0112 42.8453 81.4266 41.4302 82.6547 39.861C83.0853 39.3109 83.0297 38.5227 82.5357 38.0287L79.016 34.5091C78.5825 34.0755 78.491 33.4124 78.776 32.8694C79.2607 31.9464 79.6646 30.9747 79.9791 29.9634C80.161 29.3781 80.6949 28.9743 81.3075 28.9743H86.2873C86.9857 28.9743 87.5825 28.457 87.6668 27.7638C87.7857 26.7871 87.8473 25.7929 87.8473 24.7844C87.8473 23.7756 87.7857 22.7814 87.6668 21.805C87.5825 21.1117 86.9857 20.5945 86.2873 20.5945H81.3075C80.6946 20.5945 80.161 20.1906 79.9791 19.6054C79.6646 18.5941 79.2607 17.6221 78.776 16.6994C78.4913 16.1566 78.5827 15.4935 79.0163 15.0599V15.0599Z" fill="#536C77"/> 
<path d="M59.3972 36.8831C54.3132 35.211 50.6309 30.4211 50.6309 24.7846C50.6309 19.1481 54.3132 14.3582 59.3972 12.6862C61.5563 10.1638 64.3775 8.22485 67.5919 7.13852C67.5706 7.04242 67.5558 6.94422 67.5558 6.8425V1.86273C67.5558 1.1643 67.0386 0.567578 66.3453 0.483203C65.3686 0.364375 64.3744 0.302734 63.3659 0.302734C62.3574 0.302734 61.3629 0.364375 60.3865 0.483203C59.6932 0.567578 59.1757 1.1643 59.1757 1.86273V6.8425C59.1757 7.45539 58.7719 7.98906 58.1867 8.17094C57.1754 8.48547 56.2034 8.8893 55.2807 9.37399C54.7376 9.65922 54.0746 9.56781 53.641 9.13399L50.1214 5.61438C49.6273 5.12031 48.8391 5.06477 48.289 5.49531C46.7201 6.72344 45.3047 8.1386 44.0766 9.70774C43.6461 10.2578 43.7016 11.046 44.1957 11.5401L47.7153 15.0597C48.1489 15.4933 48.2403 16.1563 47.9553 16.6994C47.4706 17.6223 47.0668 18.5941 46.7522 19.6054C46.5704 20.1906 46.0364 20.5945 45.4238 20.5945H40.4438C39.7453 20.5945 39.1486 21.1117 39.0643 21.805C38.9454 22.7816 38.8838 23.7759 38.8838 24.7844C38.8838 25.7929 38.9454 26.7874 39.0643 27.7638C39.1486 28.457 39.7453 28.9743 40.4438 28.9743H45.4236C46.0364 28.9743 46.5701 29.3781 46.752 29.9634C47.0665 30.9747 47.4704 31.9466 47.955 32.8694C48.2403 33.4124 48.1489 34.0755 47.715 34.5091L44.1954 38.0287C43.7014 38.5227 43.6458 39.3109 44.0764 39.861C45.3045 41.4299 46.7196 42.8453 48.2888 44.0734C48.8389 44.504 49.6271 44.4484 50.1211 43.9544L53.6407 40.4348C54.0743 40.0012 54.7374 39.9098 55.2804 40.1948C56.2034 40.6795 57.1751 41.0833 58.1864 41.3978C58.7717 41.5797 59.1755 42.1136 59.1755 42.7263V47.706C59.1755 48.4045 59.6928 49.0012 60.3863 49.0856C61.3629 49.2044 62.3571 49.266 63.3657 49.266C64.3742 49.266 65.3686 49.2044 66.345 49.0856C67.0383 49.0012 67.5556 48.4045 67.5556 47.706V42.7263C67.5556 42.6245 67.5706 42.5263 67.5917 42.4302C64.3777 41.3444 61.5563 39.4054 59.3972 36.8831V36.8831Z" fill="#424040"/> 
<path d="M63.3656 35.7615C69.428 35.7615 74.3426 30.847 74.3426 24.7846C74.3426 18.7222 69.428 13.8076 63.3656 13.8076C57.3032 13.8076 52.3887 18.7222 52.3887 24.7846C52.3887 30.847 57.3032 35.7615 63.3656 35.7615Z" fill="#3E5959"/> 
<path d="M58.5513 24.7846C58.5513 19.7924 61.8851 15.5814 66.447 14.2492C65.4691 13.9637 64.4358 13.8076 63.3656 13.8076C57.303 13.8076 52.3887 18.7222 52.3887 24.7846C52.3887 30.8469 57.3033 35.7615 63.3656 35.7615C64.4358 35.7615 65.4691 35.6054 66.447 35.32C61.8851 33.988 58.5513 29.7768 58.5513 24.7846V24.7846Z" fill="#384949"/> 
<path d="M63.3656 37.5193C56.3438 37.5193 50.6309 31.8064 50.6309 24.7846C50.6309 17.7627 56.3438 12.0498 63.3656 12.0498C70.3875 12.0498 76.1004 17.7627 76.1004 24.7846C76.1004 31.8064 70.3875 37.5193 63.3656 37.5193ZM63.3656 15.5654C58.2823 15.5654 54.1465 19.7012 54.1465 24.7846C54.1465 29.8679 58.2823 34.0037 63.3656 34.0037C68.449 34.0037 72.5848 29.8679 72.5848 24.7846C72.5848 19.7012 68.4492 15.5654 63.3656 15.5654V15.5654Z" fill="#536C77"/> 
<path d="M63.3659 28.596C65.4707 28.596 67.177 26.8897 67.177 24.7848C67.177 22.68 65.4707 20.9736 63.3659 20.9736C61.261 20.9736 59.5547 22.68 59.5547 24.7848C59.5547 26.8897 61.261 28.596 63.3659 28.596Z" fill="white"/> 
<path d="M118.792 73.9477H77.4661C76.7993 73.9477 76.2588 73.4073 76.2588 72.7405V59.5334C76.2588 58.8666 76.7993 58.3262 77.4661 58.3262H118.792C119.459 58.3262 120 58.8666 120 59.5334V72.7407C120 73.4073 119.459 73.9477 118.792 73.9477V73.9477Z" fill="#424040"/> 
<path d="M84.386 72.7407V59.5334C84.386 58.8666 84.9264 58.3262 85.5932 58.3262H77.4661C76.7993 58.3262 76.2588 58.8666 76.2588 59.5334V72.7407C76.2588 73.4075 76.7993 73.948 77.4661 73.948H85.5932C84.9264 73.948 84.386 73.4073 84.386 72.7407Z" fill="#4D5E63"/> 
<path d="M111.408 67.8945H84.8506C83.8796 67.8945 83.0928 67.1075 83.0928 66.1367C83.0928 65.1659 83.8796 64.3789 84.8506 64.3789H111.408C112.379 64.3789 113.165 65.1659 113.165 66.1367C113.165 67.1075 112.378 67.8945 111.408 67.8945Z" fill="white"/> 
<path d="M118.792 96.823H77.4661C76.7993 96.823 76.2588 96.2825 76.2588 95.6157V82.4084C76.2588 81.7416 76.7993 81.2012 77.4661 81.2012H118.792C119.459 81.2012 120 81.7416 120 82.4084V95.6157C120 96.2825 119.459 96.823 118.792 96.823Z" fill="#292828"/> 
<path d="M84.386 95.6157V82.4084C84.386 81.7416 84.9264 81.2012 85.5932 81.2012H77.4661C76.7993 81.2012 76.2588 81.7416 76.2588 82.4084V95.6157C76.2588 96.2825 76.7993 96.823 77.4661 96.823H85.5932C84.9264 96.823 84.386 96.2825 84.386 95.6157Z" fill="#424040"/> 
<path d="M111.408 90.7695H84.8506C83.8796 90.7695 83.0928 89.9825 83.0928 89.0117C83.0928 88.0409 83.8796 87.2539 84.8506 87.2539H111.408C112.379 87.2539 113.165 88.0409 113.165 89.0117C113.165 89.9825 112.378 90.7695 111.408 90.7695Z" fill="white"/> 
<path d="M118.792 119.697H77.4661C76.7993 119.697 76.2588 119.157 76.2588 118.49V105.282C76.2588 104.616 76.7993 104.075 77.4661 104.075H118.792C119.459 104.075 120 104.616 120 105.282V118.49C120 119.157 119.459 119.697 118.792 119.697Z" fill="#4D5E63"/> 
<path d="M84.386 118.49V105.282C84.386 104.616 84.9264 104.075 85.5932 104.075H77.4661C76.7993 104.075 76.2588 104.616 76.2588 105.282V118.49C76.2588 119.157 76.7993 119.697 77.4661 119.697H85.5932C84.9264 119.697 84.386 119.157 84.386 118.49Z" fill="#4D5E63"/> 
<path d="M111.408 113.645H84.8506C83.8796 113.645 83.0928 112.858 83.0928 111.887C83.0928 110.916 83.8796 110.129 84.8506 110.129H111.408C112.379 110.129 113.165 110.916 113.165 111.887C113.165 112.858 112.378 113.645 111.408 113.645Z" fill="white"/> 
</svg>