<svg width="628" height="409" viewBox="0 0 628 409" fill="none" xmlns="http://www.w3.org/2000/svg">
<path d="M602.646 214.213L602.667 214.309L602.722 214.39L620.6 240.394C624.897 246.644 627.046 254.121 626.724 261.698C626.471 267.631 624.713 273.401 621.614 278.465L610.116 297.26C605.901 304.15 598.333 308.269 590.259 308.067L579.674 307.802C572.684 307.627 566.469 303.306 563.872 296.813L559.644 286.243L559.18 286.429L559.644 286.243C558.535 283.471 554.91 282.812 552.896 285.017L553.265 285.354L552.896 285.017L550.391 287.76C549.102 289.172 546.811 288.918 545.862 287.258L542.135 280.735C538.221 273.886 530.007 270.765 522.533 273.286L501.357 280.43L501.517 280.904L501.357 280.43C499.034 281.214 496.755 282.12 494.529 283.145L476.009 291.67C472.098 293.47 467.614 293.558 463.636 291.912L463.445 292.374L463.636 291.912C460.482 290.606 459.225 286.802 460.982 283.875L460.553 283.617L460.982 283.875L461.528 282.964L461.1 282.706L461.528 282.964C463.199 280.18 463.442 276.767 462.183 273.774L449.758 244.23C446.635 236.804 449.973 228.24 457.298 224.886L457.09 224.432L457.298 224.886L480.825 214.115L480.933 214.065L481.007 213.973L502.229 187.539C504.56 184.636 508.615 183.783 511.918 185.5L512.132 185.088L511.918 185.5C515.208 187.211 519.202 186.784 522.056 184.416L535.647 173.138C537.346 171.728 539.67 171.336 541.737 172.111L549.302 174.948L549.477 174.48L549.302 174.948C552.651 176.204 554.227 180.041 552.728 183.289C551.262 186.466 552.309 190.238 555.204 192.204L555.485 191.791L555.204 192.204L565.046 198.889L565.327 198.476L565.046 198.889C569.939 202.212 576.653 199.956 578.545 194.352L586.014 172.232L588.927 187.123C589.396 189.516 591.694 191.094 594.096 190.67C595.932 190.346 597.696 191.529 598.094 193.351L602.646 214.213Z" fill="white" stroke="black"/>
<path d="M468.615 274.163L469.076 273.969L468.615 274.163C469.75 276.861 469.531 279.939 468.024 282.45L467.478 283.361C465.406 286.812 466.888 291.298 470.607 292.837L470.607 292.837C470.754 292.897 470.9 292.955 471.048 293.011C468.55 293.256 466.003 292.892 463.636 291.913C460.482 290.607 459.225 286.803 460.981 283.875L461.528 282.964C463.198 280.181 463.441 276.767 462.183 273.775L449.758 244.231C446.635 236.805 449.973 228.24 457.298 224.887L457.09 224.432L457.298 224.887L480.825 214.115L480.933 214.066L481.007 213.974L502.229 187.539L502.229 187.539C504.315 184.94 507.784 183.988 510.857 185.05C510.094 185.548 509.399 186.171 508.803 186.913L508.797 186.921L508.79 186.929L486.951 216.537L463.541 227.255C459.691 229.018 456.992 231.35 455.693 234.287C454.39 237.233 454.539 240.694 456.19 244.619L456.65 244.425L456.19 244.619L468.615 274.163Z" fill="white" stroke="black"/>
<path d="M33.8304 49.9102L33.8328 49.9115C47.8153 57.355 49.2548 69.9197 50.7564 83.0264C50.9381 84.6124 51.1207 86.2064 51.3266 87.8002L51.3269 87.8028C51.3968 88.3214 51.4643 88.8592 51.5333 89.4092C51.7698 91.2927 52.0241 93.3185 52.4502 95.2041C52.9994 97.6353 53.8538 99.9375 55.4103 101.471C64.5952 110.615 68.0787 122.45 70.3458 134.076C72.3561 144.468 78.1053 153.172 83.7973 161.789C84.578 162.971 85.3577 164.151 86.1265 165.334C92.5222 175.175 98.1984 185.223 97.8857 198.006C97.8575 199.101 98.4965 200.35 99.4963 201.494C100.512 202.657 101.961 203.785 103.698 204.642C107.176 206.359 111.859 207.013 116.577 204.611L116.578 204.611C120.142 202.792 123.071 203.067 125.507 204.557C127.982 206.073 130.007 208.881 131.623 212.244C132.415 213.898 132.584 215.105 132.416 215.999C132.251 216.877 131.747 217.527 131.024 218.045C130.29 218.571 129.351 218.945 128.369 219.258C127.92 219.401 127.472 219.528 127.036 219.653L126.919 219.686C126.451 219.819 125.995 219.95 125.588 220.091C122.642 221.104 119.069 221.016 115.285 220.066C111.505 219.117 107.551 217.317 103.867 214.955C96.479 210.216 90.297 203.292 88.744 196.605L88.7434 196.602C88.6358 196.149 88.538 195.688 88.4388 195.221L88.4367 195.211C88.3372 194.742 88.2361 194.266 88.1241 193.796C87.9006 192.859 87.6283 191.923 87.2179 191.066C86.3803 189.318 84.9792 187.933 82.3656 187.431C80.9596 187.16 80.0934 186.783 79.5897 186.372C79.1121 185.983 78.9471 185.554 78.9574 185.076C78.9685 184.563 79.184 183.958 79.561 183.268C79.9345 182.585 80.4379 181.867 80.9719 181.133L80.9726 181.132C83.7555 177.288 83.8667 173.4 82.7107 170.105C81.5633 166.835 79.1735 164.157 76.9444 162.642C70.0512 157.922 66.4004 151.916 63.8636 145.337C62.5927 142.041 61.6035 138.607 60.6243 135.113C60.5365 134.8 60.4487 134.486 60.3608 134.171C59.471 130.988 58.5694 127.763 57.4562 124.585C51.5377 107.671 44.3674 91.1876 37.2091 74.7321C34.1318 67.6579 31.0566 60.5888 28.0841 53.4927L28.0616 53.4388L28.0272 53.3916C27.359 52.4734 26.3803 51.553 25.4208 50.6601C25.3798 50.6219 25.3388 50.5838 25.2979 50.5457C24.3632 49.6762 23.4496 48.8263 22.7638 47.9724C22.0424 47.0742 21.6451 46.2572 21.6755 45.4943C21.7046 44.7621 22.1377 43.9299 23.4444 43.0126C24.2656 42.4388 25.0194 42.4144 25.7852 42.7162C26.5935 43.0347 27.4238 43.7227 28.3039 44.616C28.8137 45.1335 29.3027 45.6784 29.8019 46.2347C30.1791 46.655 30.5621 47.0818 30.9643 47.5081C31.8648 48.4627 32.819 49.3647 33.8304 49.9102Z" fill="white" stroke="black"/>
<path d="M494.554 50.5656L494.554 50.5656L469.373 42.1914C469.373 42.1914 469.373 42.1914 469.373 42.1913C468.989 42.0636 468.63 41.8689 468.313 41.616L494.554 50.5656ZM494.554 50.5656C495.517 50.886 496.574 50.7647 497.439 50.2336L529.882 30.3142C532.368 28.7883 531.935 25.0612 529.169 24.1413C527.817 23.6918 527.14 22.1863 527.701 20.8814L534.862 4.20831C534.862 4.20824 534.862 4.20817 534.862 4.20811C535.162 3.51078 535.772 2.99298 536.51 2.80862L545.475 0.572581C545.475 0.572574 545.475 0.572568 545.475 0.572562C546.306 0.36559 547.184 0.6084 547.789 1.21194L560.741 14.1343L560.741 14.1344C561.386 14.7773 562.259 15.1382 563.17 15.1382H569.608C571.332 15.1382 572.508 16.8748 571.869 18.4683L567.974 28.1837L567.974 28.1839C567.61 29.0934 567.652 30.1151 568.091 30.9913L569.553 33.908C570.021 34.8426 569.838 35.9714 569.097 36.7104L554.684 51.0901C553.733 52.039 552.19 52.039 551.239 51.0901L549.12 48.9757C547.911 47.7696 545.998 47.634 544.631 48.6571L544.93 49.0575L544.631 48.6572L537.385 54.0789L537.685 54.4793L537.385 54.079C535.713 55.3311 535.538 57.7713 537.017 59.2469L542.12 64.3383C542.861 65.0773 543.045 66.2061 542.576 67.1406L541.097 70.0914C540.67 70.9442 540.618 71.9364 540.953 72.8293L549.047 94.3628L549.515 94.1869L549.047 94.3629C549.284 94.9945 549.247 95.697 548.945 96.3008L537.999 118.143L537.998 118.143C537.746 118.647 537.326 119.047 536.81 119.276L512.061 130.25L512.061 130.25C511.396 130.545 510.633 130.528 509.982 130.203L509.759 130.651L509.982 130.203L494.416 122.438C493.538 122 492.516 121.958 491.605 122.321L491.604 122.321L479.863 127.007L479.863 127.007C478.866 127.405 477.726 127.105 477.056 126.269L476.666 126.582L477.056 126.269L468.068 115.06C467.293 114.093 467.371 112.701 468.248 111.826L468.528 111.547L468.528 111.547C469.172 110.903 469.534 110.032 469.534 109.122V101.945C469.534 99.7801 467.55 98.159 465.426 98.583L455.141 100.635C454.508 100.762 453.85 100.632 453.312 100.274L453.312 100.274L446.071 95.458C446.071 95.458 446.071 95.4579 446.071 95.4579C445.507 95.0822 444.844 94.8822 444.166 94.8822H431.171C430.58 94.8822 430.01 94.6685 429.566 94.2811L429.566 94.281L407.42 74.9471C407.42 74.947 407.42 74.947 407.42 74.9469C406.891 74.4851 406.589 73.8192 406.589 73.1194V60.187C406.589 59.6542 406.464 59.1292 406.226 58.6531L400.851 47.9275C400.682 47.5904 400.594 47.2185 400.594 46.8416V41.1013C400.594 39.8936 401.484 38.8681 402.684 38.6968L419.192 36.3442C420.575 36.1472 421.7 35.1347 422.039 33.7821L422.039 33.782L424.167 25.2899C424.167 25.2899 424.167 25.2898 424.167 25.2898C424.369 24.4847 424.969 23.8374 425.759 23.5747L425.759 23.5747L448.053 16.1602C448.053 16.1602 448.053 16.1602 448.053 16.1602C449.444 15.6978 450.924 16.5566 451.211 17.9881L453.347 28.6416C453.505 29.4328 453.938 30.1433 454.57 30.6468C454.57 30.6468 454.57 30.6469 454.57 30.6469L468.313 41.6159L494.554 50.5656Z" fill="white" stroke="black"/>
<path d="M368.147 103.831L368.359 103.808L368.488 103.639L379.333 89.5211L392.172 91.3264L400.657 100.822V104.318L385.07 114.983L384.95 115.065L384.893 115.198L374.833 138.603H370.515L366.498 128.16L365.239 119.904L365.194 119.609L364.914 119.509L346.911 113.021L349.73 105.877L368.147 103.831Z" fill="white" stroke="black"/>
<path d="M263.99 61.1038V60.9497L263.903 60.8223L256.919 50.5672V41.4473H271.007L282.765 50.9752L289.836 136.819L282.786 221.578H281.089L271.858 198.399L271.856 198.394L259.415 166.165V151.494V150.994H258.915H254.839H254.733L254.637 151.036L245.213 155.211L233.836 132.745V129.205H248.309H248.809V128.705V124.338V124.181L248.718 124.052L237.833 108.487L242.693 103.627H253.508H253.801L253.944 103.371L269.854 74.9929L270.039 74.6628L269.772 74.395L263.99 68.6066V61.1038Z" fill="white" stroke="black"/>
<path d="M317.112 107.101L317.172 107.134L317.239 107.149L345.757 113.714V144.286L333.436 151.509L333.406 151.527L333.379 151.548L299.781 178.014L299.575 178.177L299.591 178.439L301.038 200.962L289.811 221.578H283.746V51.0156L294.944 44.8065L302.677 54.0609L291.158 70.102L291.064 70.2328V70.3937V80.4592V80.8815L291.48 80.9521L302.086 82.7529V88.2758L298.185 96.2523L297.975 96.6823L298.395 96.9111L317.112 107.101Z" fill="white" stroke="black"/>
<path d="M246.274 232.419L246.274 232.419C247.589 234.412 248.108 236 248.103 237.221C248.098 238.415 247.595 239.305 246.736 239.949C245.859 240.608 244.591 241.022 243.072 241.174C241.561 241.325 239.838 241.211 238.09 240.85C236.898 240.602 235.784 239.72 234.542 238.483C234.14 238.083 233.723 237.643 233.289 237.186C232.581 236.44 231.83 235.647 231.026 234.901C231.958 234.394 232.914 233.809 233.867 233.227C234.161 233.047 234.454 232.868 234.746 232.691C236.22 231.8 237.676 230.965 239.08 230.419C240.486 229.874 241.789 229.639 242.971 229.89C244.134 230.137 245.254 230.871 246.274 232.419Z" fill="white" stroke="black"/>
<path d="M227.617 251.554L227.222 251.513C227.146 251.505 227.068 251.498 226.986 251.491C226.945 251.487 226.902 251.483 226.859 251.479C226.646 251.463 226.432 251.447 226.217 251.431C225.102 251.348 223.965 251.264 222.833 251.143C222.364 251.097 221.887 251.019 221.426 250.944C221.205 250.909 220.988 250.873 220.778 250.843C220.571 250.812 220.361 250.783 220.15 250.754C219.539 250.669 218.916 250.583 218.309 250.459L218.3 250.457L218.3 250.457C217.578 250.295 216.884 250.066 216.219 249.847C216.045 249.79 215.873 249.733 215.703 249.678L215.702 249.678C215.498 249.612 215.294 249.557 215.076 249.497C215.012 249.48 214.947 249.462 214.881 249.444C214.597 249.365 214.295 249.277 214 249.159L213.993 249.156L213.993 249.156C212.618 248.58 211.307 247.859 210.103 246.924L210.103 246.924C207.525 244.917 205.43 243.405 203.592 242.392C201.757 241.382 200.21 240.889 198.724 240.884C195.749 240.876 192.806 242.825 188.117 247.268L188.116 247.269C187.955 247.42 187.795 247.574 187.633 247.727C185.595 249.672 183.48 251.69 180.162 251.074L227.617 251.554ZM227.617 251.554L227.627 251.526M227.617 251.554L227.627 251.526M227.627 251.526L228.448 251.521L227.952 250.755C227.39 249.885 227.252 249.291 227.31 248.921C227.36 248.608 227.57 248.345 228.084 248.17C228.443 248.057 228.913 247.993 229.491 248.005L229.494 248.005C230.507 248.023 231.523 248.182 232.574 248.362C232.681 248.38 232.787 248.398 232.894 248.417C233.835 248.579 234.807 248.746 235.787 248.814C236.491 248.864 237.227 248.747 237.921 248.61C238.12 248.571 238.314 248.531 238.504 248.491C239.002 248.387 239.475 248.289 239.941 248.232C240.577 248.155 241.123 248.17 241.585 248.339C242.028 248.501 242.438 248.823 242.779 249.458C242.93 249.749 242.988 249.968 243 250.131C242.982 250.171 242.965 250.22 242.954 250.278C242.912 250.47 242.745 250.661 242.313 250.876C242.034 251.015 241.732 251.126 241.397 251.248C241.197 251.321 240.986 251.398 240.76 251.489C240.209 251.709 239.597 252.004 239.189 252.494C238.762 253.008 238.61 253.671 238.813 254.5L237.937 255.511L239.5 255.101C241.489 254.579 243.194 254.521 244.579 255.074L244.579 255.075L244.59 255.079C244.611 255.087 244.649 255.109 244.743 255.185C244.753 255.192 244.763 255.201 244.774 255.21C244.85 255.273 244.971 255.372 245.102 255.443L245.109 255.447C245.644 255.728 246.098 255.976 246.461 256.367L246.461 256.368C247.035 256.985 247.526 257.789 247.946 258.829C247.947 258.829 247.947 258.83 247.947 258.83L248.41 258.642M227.627 251.526L256.115 271.711L256.613 271.666M248.41 258.642C248.766 259.523 249.517 260.866 250.125 260.899C250.739 260.921 251.448 260.752 252.155 260.584C253.874 260.174 255.585 259.767 255.915 262.102C256.156 263.803 254.465 264.748 252.761 265.701C251.969 266.143 251.174 266.588 250.569 267.11C250.323 267.325 250.199 267.677 250.073 268.034C250.014 268.201 249.955 268.369 249.882 268.524C250.356 268.842 250.826 269.17 251.296 269.499C251.531 269.663 251.766 269.827 252.002 269.99C252.546 270.318 253.291 270.225 254.025 270.133C255.252 269.98 256.446 269.831 256.613 271.666M248.41 258.642C247.972 257.56 247.452 256.7 246.827 256.028C246.398 255.564 245.869 255.281 245.341 255.004C245.256 254.957 245.176 254.892 245.096 254.827C244.991 254.741 244.885 254.655 244.764 254.61C243.474 254.094 241.969 254.074 240.304 254.402L239.854 254.857C239.81 254.902 239.766 254.936 239.749 254.949L239.745 254.953C239.733 254.962 239.742 254.956 239.751 254.945L239.45 254.684L248.41 258.642ZM256.613 271.666C256.829 274.065 255.261 273.93 253.765 273.8C253.312 273.761 252.866 273.723 252.478 273.755L180.162 251.074C176.068 250.317 172.373 250.647 169.485 252.134C166.613 253.613 164.483 256.264 163.549 260.277C162.57 264.491 161.049 268.495 159.542 272.461C159.36 272.939 159.179 273.417 158.999 273.894C157.318 278.344 155.737 282.782 154.985 287.525L154.985 287.525C154.725 289.165 154.747 290.342 154.952 291.163C155.152 291.97 155.52 292.409 155.956 292.642C156.411 292.884 157.021 292.946 157.779 292.827C158.532 292.708 159.382 292.419 160.268 292.019C160.416 291.952 160.564 291.885 160.711 291.818C162.259 291.111 163.764 290.425 165.285 290.139C166.987 289.819 168.715 289.996 170.601 291.122L171.043 291.386L170.766 291.821C170.047 292.948 170.11 293.598 170.385 294.035C170.707 294.545 171.422 294.96 172.447 295.353C173.107 295.542 173.536 296.068 173.851 296.559C174.002 296.795 174.143 297.049 174.274 297.286L174.305 297.342C174.449 297.601 174.583 297.839 174.725 298.051C175.017 298.484 175.28 298.708 175.58 298.764C175.884 298.82 176.388 298.731 177.229 298.124L177.33 298.051L177.454 298.034C178.496 297.893 179.365 297.579 180.048 297.069C180.725 296.562 181.248 295.84 181.57 294.825L181.636 294.617L181.834 294.524C182.121 294.389 182.444 294.267 182.749 294.153C182.822 294.125 182.894 294.098 182.965 294.071C183.343 293.927 183.685 293.787 183.969 293.619C184.251 293.451 184.44 293.277 184.547 293.085C184.647 292.905 184.702 292.662 184.629 292.297L184.629 292.296C184.421 291.244 183.115 290.458 181.519 290.738L181.387 290.761L181.261 290.715C180.869 290.572 180.48 290.428 180.09 290.284C179.314 289.998 178.54 289.712 177.759 289.431L177.604 289.375L177.513 289.238C177.451 289.145 177.393 289.067 177.327 288.98C177.282 288.919 177.233 288.854 177.177 288.775C177.056 288.606 176.923 288.402 176.832 288.167L176.828 288.158L176.828 288.158C176.765 287.984 176.809 287.834 176.833 287.769C176.861 287.694 176.899 287.634 176.928 287.594C176.986 287.511 177.06 287.434 177.127 287.372C177.26 287.247 177.436 287.115 177.592 287.031L177.6 287.026L177.61 287.021C182.092 284.835 186.016 285.556 189.609 287.141C191.344 287.906 193.015 288.877 194.632 289.818L194.773 289.9C196.445 290.872 198.057 291.801 199.673 292.473L199.673 292.473C200.595 292.856 201.452 293.244 202.253 293.608L202.389 293.669C203.141 294.011 203.84 294.329 204.506 294.605C205.923 295.194 207.137 295.572 208.286 295.59C210.506 295.625 212.714 294.308 215.734 289.632L215.734 289.631C223.7 277.321 238.453 274.54 252.432 273.257L252.436 273.257C252.869 273.221 253.358 273.263 253.799 273.301C253.837 273.305 253.874 273.308 253.91 273.311C254.407 273.353 254.844 273.383 255.211 273.335C255.569 273.287 255.785 273.175 255.918 272.995C256.058 272.804 256.18 272.436 256.115 271.711L256.613 271.666ZM239.249 254.133C239.025 252.651 240.318 252.177 241.53 251.732C242.436 251.4 243.298 251.083 243.445 250.374C243.45 250.342 243.465 250.317 243.479 250.295C243.489 250.279 243.498 250.264 243.501 250.25M239.249 254.133L227.929 247.695C228.353 247.561 228.88 247.492 229.502 247.506C230.665 247.526 231.82 247.725 232.978 247.924C233.922 248.086 234.869 248.249 235.822 248.316C236.625 248.372 237.505 248.188 238.383 248.006C240.271 247.612 242.147 247.221 243.221 249.224C243.431 249.627 243.514 249.963 243.501 250.25M239.249 254.133C239.248 254.133 239.247 254.133 239.246 254.134L239.254 254.164M239.249 254.133L239.254 254.164M243.501 250.25L243.01 250.154C243.023 250.089 243.047 250.044 243.052 250.034C243.054 250.032 243.055 250.029 243.056 250.028M243.501 250.25L243.056 250.028M243.056 250.028L243.057 250.027C243.058 250.025 243.057 250.026 243.056 250.028ZM239.254 254.164C239.261 254.205 239.269 254.246 239.278 254.288L239.254 254.164Z" fill="white" stroke="black"/>
<path d="M418.974 222.16L417.334 221.087C417.009 220.875 416.783 220.542 416.704 220.163C416.624 219.784 416.699 219.389 416.911 219.065C417.123 218.741 417.456 218.514 417.835 218.435C418.214 218.356 418.609 218.43 418.933 218.642L420.574 219.716C420.898 219.928 421.124 220.26 421.204 220.639C421.283 221.019 421.208 221.414 420.996 221.738C420.784 222.062 420.452 222.289 420.073 222.368C419.693 222.447 419.298 222.372 418.974 222.16Z" fill="white" stroke="black"/>
<path d="M389.608 235.927L371.126 237.112L377.02 228.106L377.084 228.007L377.098 227.89L378.018 219.984L387.184 225.983L387.602 226.256L387.876 225.838L391.973 219.577L403.615 222.646L404.042 222.758L404.206 222.349L407.926 213.093L408.718 211.528L415.937 197.274L416.011 197.128L415.985 196.967L412.365 174.893L412.365 174.893L410.889 165.881L419.715 162.681L419.961 162.591L420.028 162.338L421.608 156.343L421.726 155.895L421.288 155.743L413.79 153.137L406.371 143.765L410.834 133.617L429.478 143.533L429.767 143.686L430.023 143.483L434.602 139.859L446.745 147.805L442.974 154.138L442.795 154.439L443.017 154.71L454.695 168.992L437.287 168.629L437.185 168.626L437.091 168.664L425.981 173.109L425.65 173.242L425.667 173.598L426.98 200.182L426.292 204.596L426.291 204.597L423.402 223.406L413.438 235.145L396.285 233.149L396.153 233.134L396.031 233.186L389.608 235.927Z" fill="white" stroke="black"/>
<path d="M412.72 139.069L410.876 143.153L416.122 149.789L422.547 152.022C423.632 152.379 424.537 153.142 425.072 154.151C425.607 155.16 425.73 156.337 425.417 157.435L423.838 163.426L423.838 163.427C423.654 164.116 423.306 164.752 422.824 165.278C422.342 165.804 421.739 166.206 421.068 166.448L415.313 168.539L416.583 176.034L416.584 176.039L416.584 176.039L416.848 177.709L416.848 177.712L419.895 196.363L419.897 196.376L419.897 196.376C420.021 197.293 419.854 198.226 419.42 199.043L411.507 214.709L409.044 220.828L409.044 220.829L407.84 223.813C407.439 224.813 406.685 225.632 405.721 226.116C404.758 226.6 403.651 226.714 402.608 226.439L393.708 224.087L391.157 227.985C390.515 228.966 389.51 229.652 388.362 229.892C387.214 230.131 386.018 229.905 385.037 229.263L381.183 226.742L380.99 228.348C380.99 228.349 380.99 228.35 380.99 228.351C380.915 229.031 380.678 229.683 380.3 230.254L378.703 232.695L388.643 232.036L394.565 229.626C394.566 229.625 394.568 229.625 394.569 229.624C395.276 229.323 396.048 229.211 396.811 229.3L412.72 139.069ZM412.72 139.069L427.626 147.007L427.626 147.007C428.389 147.412 429.254 147.586 430.114 147.505C430.974 147.425 431.791 147.095 432.465 146.555C432.466 146.555 432.466 146.555 432.466 146.555L434.818 144.686L441.463 149.034L439.609 152.12L439.608 152.121C439.139 152.902 438.924 153.81 438.991 154.72C439.058 155.629 439.404 156.495 439.983 157.2L439.983 157.201L441.86 159.481L444.336 162.6L444.336 162.6L444.341 162.606L446.258 164.947L437.357 164.761L437.357 164.761L437.35 164.761C436.761 164.758 436.176 164.864 435.626 165.074L435.626 165.074L435.621 165.076L425.286 169.161L425.286 169.161L424.53 169.46C424.53 169.46 424.529 169.46 424.529 169.461C423.668 169.794 422.933 170.389 422.428 171.162C421.922 171.935 421.671 172.847 421.71 173.77L421.71 173.77L421.71 173.775L421.749 174.503L421.749 174.504L423.052 199.955L421.381 210.919L421.381 210.92L419.717 221.697L411.809 231.01L396.812 229.3L412.72 139.069Z" fill="white" stroke="black"/>
<path d="M406.371 143.765L410.834 133.617L429.478 143.533L429.767 143.686L430.023 143.483L434.602 139.859L446.745 147.805L442.974 154.138L442.969 154.147L442.964 154.156L440.952 157.875L440.951 157.876L439.262 160.979L432.275 166.385L432.274 166.386L431.309 167.129L430.778 167.049L430.774 167.048L420.963 165.404L420.591 165.341L420.429 165.682L415.768 175.495L412.313 174.574L410.889 165.881L419.715 162.681L419.961 162.591L420.028 162.338L421.608 156.343L421.726 155.895L421.288 155.743L413.79 153.137L406.371 143.765Z" fill="white" stroke="black"/>
<path d="M430.928 157.347L429.287 156.273C428.963 156.061 428.736 155.729 428.657 155.35L428.168 155.452L428.657 155.35C428.578 154.97 428.653 154.575 428.865 154.251C429.077 153.927 429.409 153.701 429.788 153.621C430.168 153.542 430.563 153.617 430.887 153.829L432.527 154.902C432.851 155.115 433.078 155.447 433.157 155.826C433.236 156.205 433.162 156.6 432.95 156.924C432.738 157.249 432.405 157.475 432.026 157.554C431.647 157.634 431.252 157.559 430.928 157.347Z" fill="white" stroke="black"/>
<path d="M437.49 161.642L435.85 160.568C435.526 160.356 435.299 160.024 435.22 159.645L434.73 159.747L435.22 159.645C435.141 159.265 435.215 158.87 435.427 158.546C435.639 158.222 435.972 157.995 436.351 157.916C436.73 157.837 437.125 157.912 437.449 158.124L439.09 159.197C439.414 159.409 439.641 159.742 439.72 160.121C439.799 160.5 439.724 160.895 439.512 161.219C439.3 161.543 438.968 161.77 438.589 161.849C438.209 161.928 437.814 161.854 437.49 161.642Z" fill="white" stroke="black"/>
<path d="M389.608 235.927L371.126 237.112L377.02 228.105L377.084 228.007L377.098 227.889L378.018 219.984L387.184 225.982L387.602 226.256L387.876 225.837L391.973 219.577L403.615 222.645L404.042 222.758L404.206 222.348L407.925 213.092L408.574 211.811L412.603 211.928L412.606 211.928L417.317 212.034L417.594 212.041L417.746 211.808L422.748 204.165L422.864 204.195L422.866 204.195L426.222 205.046L423.402 223.406L413.438 235.144L396.285 233.149L396.153 233.134L396.031 233.186L389.608 235.927Z" fill="white" stroke="black"/>
<path d="M63.4081 306.91L63.8376 307.39L64.1962 306.855L71.8545 295.422L79.2445 333.233L81.655 370.647L73.3544 371.734L73.2541 371.747L73.1668 371.798L58.3227 380.483L38.3183 374.142L40.5612 361.885L40.6023 361.66L40.4592 361.482L18.9552 334.708L26.8632 325.26L42.7537 325.783L43.3826 325.804L43.2607 325.187L37.6365 296.711L51.5187 293.617L63.4081 306.91Z" fill="white" stroke="black"/>
<path d="M130.64 306.999L130.758 307.16L130.954 307.196L142.769 309.364L141.023 328.413L131.728 342.856L122.154 343.399L121.941 343.411L121.803 343.573L109.857 357.558L91.8379 369.314L82.615 370.521L72.6922 294.711L85.4598 296.243L85.9305 296.3L86.0119 295.833L89.142 277.878L107.589 262.474L126.694 263.27L134.868 283.761L132.042 295.907L126.073 299.843L125.635 300.132L125.944 300.555L130.64 306.999Z" fill="white" stroke="black"/>
<path d="M247.279 370.563L247.209 370.53L247.133 370.519C234.731 368.776 224.917 366.317 214.519 361.58C204.438 356.987 193.79 350.245 179.693 339.91C182.802 340.105 185.893 340.267 188.973 340.428C204.887 341.26 220.514 342.078 236.828 347.366C243.399 349.496 246.458 352.474 248.407 355.819C249.392 357.511 250.1 359.308 250.832 361.187L250.887 361.33C251.598 363.156 252.337 365.054 253.372 366.937L253.556 367.272L253.927 367.183C262.375 365.141 270.711 362.589 278.936 360.07C282.929 358.847 286.895 357.632 290.836 356.488C302.352 353.144 313.674 350.391 324.904 349.738C317.873 354.801 309.672 358.361 300.956 361.459C296.64 362.993 292.205 364.41 287.727 365.842C287.399 365.947 287.07 366.052 286.741 366.158C281.931 367.696 277.079 369.261 272.296 371.009L272.295 371.009C263.828 374.106 255.523 374.516 247.279 370.563Z" fill="white" stroke="black"/>
<path d="M385.12 275.071L385.335 275.372L385.686 275.255C387.17 274.76 388.554 274.292 389.848 273.854C394.461 272.293 397.923 271.122 400.666 270.515C404.162 269.74 406.343 269.917 408.174 271.263C410.062 272.65 411.667 275.332 413.802 279.873C414.727 281.839 415.743 284.133 416.921 286.793C417.094 287.185 417.271 287.586 417.452 287.994C418.774 290.975 420.293 294.383 422.096 298.257C420.577 298.27 419.027 298.8 417.543 299.406C417.067 299.6 416.599 299.801 416.137 299.999C414.832 300.56 413.578 301.099 412.351 301.392C410.727 301.78 409.269 301.702 407.961 300.67C406.619 299.609 405.349 297.477 404.306 293.521C403.854 291.799 402.753 290.716 401.293 290.116C399.859 289.527 398.088 289.406 396.246 289.54C392.557 289.809 388.376 291.122 385.519 292.128C378.988 294.417 373.552 293.638 368.155 291.552C365.445 290.504 362.75 289.129 359.925 287.641C359.506 287.42 359.084 287.197 358.659 286.972C356.571 285.867 354.406 284.722 352.122 283.629C353.328 283.235 354.485 282.857 355.599 282.493C361.588 280.535 366.354 278.978 371.113 277.455C372.448 277.189 373.646 276.312 374.741 275.38C375.1 275.075 375.447 274.765 375.788 274.46C376.532 273.794 377.249 273.154 378 272.642C379.074 271.91 380.099 271.534 381.183 271.771C382.284 272.011 383.581 272.913 385.12 275.071Z" fill="white" stroke="black"/>
<path d="M303.96 311.032L303.96 311.03C303.687 309.98 303.227 308.996 302.732 308.054C302.532 307.674 302.331 307.309 302.133 306.948C301.866 306.464 301.604 305.987 301.356 305.496C303.832 300.754 308.004 298.608 312.61 296.51C312.945 296.357 313.282 296.205 313.621 296.052C317.621 294.245 321.854 292.333 325.253 288.638C325.124 291.538 324.348 293.633 323.206 295.235C321.887 297.085 320.048 298.327 318.02 299.385C317.129 299.85 316.211 300.275 315.289 300.702C315.162 300.761 315.034 300.82 314.906 300.879C313.861 301.364 312.815 301.859 311.832 302.414C309.866 303.526 308.106 304.908 307.043 307.03L306.899 307.318L307.101 307.568C307.98 308.658 308.777 309.303 309.551 309.558C310.363 309.826 311.071 309.639 311.683 309.253C312.269 308.884 312.796 308.315 313.287 307.775C313.322 307.736 313.358 307.697 313.393 307.657C313.863 307.14 314.314 306.642 314.814 306.248C314.976 306.121 315.139 305.992 315.305 305.861C316.642 304.807 318.098 303.66 319.591 303.058C320.418 302.725 321.222 302.575 321.994 302.689C322.758 302.801 323.537 303.177 324.313 303.977L324.313 303.977C325.267 304.959 325.438 305.593 325.374 305.999C325.307 306.421 324.957 306.816 324.324 307.246C324.018 307.454 323.675 307.651 323.314 307.854C323.268 307.88 323.221 307.906 323.174 307.933C322.862 308.108 322.54 308.289 322.243 308.476C321.902 308.691 321.569 308.929 321.301 309.202C321.032 309.476 320.807 309.808 320.72 310.21L320.72 310.21C320.406 311.671 320.549 312.821 321.042 313.75C321.53 314.669 322.327 315.306 323.195 315.811C323.86 316.198 324.607 316.528 325.325 316.844C325.535 316.937 325.742 317.028 325.944 317.12C326.86 317.535 327.687 317.957 328.32 318.508L328.32 318.508L328.324 318.511C328.618 318.763 328.933 319.016 329.248 319.27L329.281 319.296C329.588 319.543 329.895 319.79 330.196 320.043C330.822 320.571 331.397 321.111 331.835 321.688C332.271 322.263 332.556 322.855 332.628 323.49C332.7 324.118 332.57 324.837 332.093 325.681C330.887 327.755 327.985 328.197 325.276 327.242C325.083 327.166 324.87 327.034 324.632 326.861C324.465 326.74 324.305 326.612 324.138 326.479C324.061 326.418 323.982 326.355 323.901 326.291C323.659 326.101 323.393 325.904 323.128 325.767C322.869 325.633 322.533 325.515 322.175 325.595L322.175 325.595L322.168 325.597C318.627 326.447 316.022 327.069 314.007 327.253C312.005 327.436 310.686 327.175 309.653 326.356C308.594 325.516 307.749 324.023 306.874 321.516C306.002 319.02 305.13 315.614 303.96 311.032Z" fill="white" stroke="black"/>
<path d="M298.469 305.627C296.691 306.384 295.54 307.372 294.853 308.57C293.601 310.742 293.949 313.397 294.378 315.879C294.424 316.144 294.471 316.408 294.518 316.67C294.695 317.662 294.867 318.63 294.959 319.571C295.076 320.756 295.059 321.85 294.777 322.824L294.776 322.828C294.392 324.191 294.639 325.759 295.018 327.284C295.175 327.916 295.36 328.56 295.542 329.193C295.582 329.329 295.621 329.465 295.659 329.6C295.879 330.367 296.084 331.114 296.23 331.829C296.527 333.278 296.557 334.494 296.069 335.423C295.597 336.321 294.565 337.085 292.4 337.448C292.399 337.448 292.399 337.448 292.399 337.448L292.482 337.941M298.469 305.627L256.874 323.434C246.73 325.841 249.618 328.972 253.747 333.448C253.801 333.506 253.854 333.564 253.908 333.623C256.806 336.772 260.184 339.699 263.902 341.758C270.852 345.64 277.248 343.17 283.609 340.714C286.557 339.575 289.498 338.44 292.482 337.941M298.469 305.627C296.243 304.823 294.003 303.986 292.041 302.539C292.011 302.522 291.979 302.504 291.945 302.485C291.801 302.406 291.629 302.31 291.449 302.183L291.426 302.168L291.405 302.149C290.627 301.464 289.859 300.662 289.192 299.688L289.189 299.683L289.189 299.683C288.816 299.126 288.46 298.511 288.111 297.91C287.933 297.602 287.757 297.298 287.581 297.006C287.049 296.123 286.504 295.321 285.855 294.704C285.214 294.096 284.48 293.676 283.558 293.544C282.628 293.41 281.459 293.563 279.944 294.193L298.469 305.627ZM292.482 337.941C298.298 336.966 297.168 333.035 296.022 329.051C295.398 326.881 294.769 324.695 295.257 322.963M292.482 337.941L295.257 322.963M295.257 322.963C295.808 321.059 295.409 318.821 295.008 316.572C294.515 313.804 294.018 311.019 295.286 308.82L295.257 322.963Z" fill="white" stroke="black"/>
<path d="M336.809 287.614C335.461 284.424 335.407 280.698 337.481 276.062C339.697 277.278 341.209 278.654 342.236 280.131C343.333 281.708 343.895 283.426 344.148 285.241C344.402 287.062 344.344 288.971 344.205 290.927C344.16 291.551 344.107 292.183 344.054 292.817C343.969 293.825 343.884 294.841 343.832 295.844C340.656 293.346 338.114 290.7 336.809 287.614Z" fill="white" stroke="black"/>
<path d="M216.289 183.145L216.289 183.144C217.675 180.041 216.623 176.866 215.176 174.077C214.715 173.187 214.235 172.373 213.788 171.617C213.528 171.177 213.28 170.757 213.054 170.353C212.754 169.817 212.495 169.312 212.328 168.858C212.165 168.416 212.06 167.95 212.153 167.524C212.739 164.831 212.682 162.763 212.212 161.115C211.742 159.471 210.851 158.206 209.701 157.133C208.544 156.053 207.132 155.174 205.625 154.302C205.32 154.126 205.011 153.95 204.699 153.773C203.486 153.082 202.239 152.372 201.087 151.562M216.289 183.145L201.373 151.152M216.289 183.145C214.91 186.242 212.772 189.056 210.291 190.744C207.823 192.424 205.052 192.973 202.303 191.658C199.467 190.297 197.259 189.679 195.522 189.696C193.751 189.714 192.483 190.395 191.586 191.561C190.714 192.695 190.217 194.256 189.873 195.998C189.583 197.468 189.394 199.122 189.198 200.83C189.189 200.909 189.18 200.988 189.171 201.067M216.289 183.145L189.171 201.067M201.087 151.562C201.086 151.562 201.086 151.562 201.086 151.561L201.373 151.152M201.087 151.562C201.087 151.562 201.087 151.562 201.087 151.562L201.373 151.152M201.087 151.562C200.278 150.998 199.667 150.108 199.142 149.344C199.065 149.231 198.989 149.121 198.915 149.015L198.913 149.012C197.98 147.656 197.051 146.298 196.122 144.941C184.898 128.529 173.764 112.25 155.749 102.295M201.373 151.152C200.645 150.645 200.091 149.84 199.56 149.068C199.481 148.954 199.403 148.84 199.325 148.728C198.389 147.369 197.457 146.006 196.525 144.643C185.314 128.249 174.115 111.872 155.991 101.858C155.616 101.653 155.202 101.477 154.787 101.3C152.928 100.511 151.056 99.7153 152.73 96.3421C154.096 93.6035 155.247 91.7087 158.422 93.0588M155.749 102.295C155.75 102.296 155.75 102.296 155.751 102.296L155.991 101.858L155.749 102.295C155.749 102.295 155.749 102.295 155.749 102.295ZM155.749 102.295C155.399 102.104 155.019 101.942 154.613 101.77C154.455 101.703 154.293 101.634 154.128 101.561C153.562 101.312 152.963 101.019 152.493 100.602C152.005 100.169 151.651 99.5996 151.589 98.8272C151.53 98.0778 151.75 97.1927 152.283 96.1198L152.283 96.119C152.954 94.7726 153.63 93.499 154.596 92.7685C155.097 92.3894 155.676 92.1541 156.359 92.1178C157.033 92.0821 157.778 92.2416 158.618 92.5985M158.618 92.5985C158.617 92.5985 158.617 92.5984 158.617 92.5983L158.422 93.0588M158.618 92.5985C160.236 93.2828 161.463 93.2744 162.532 92.8451C163.632 92.4036 164.633 91.4919 165.74 90.2219L166.117 90.5504L165.74 90.2219C166.8 89.0051 167.331 88.0095 167.533 87.1506C167.731 86.3046 167.62 85.5462 167.306 84.7742C166.986 83.9852 166.462 83.198 165.837 82.2956C165.78 82.2138 165.723 82.1313 165.665 82.0478C165.093 81.2232 164.46 80.3126 163.897 79.2743L163.897 79.2742C162.695 77.0557 161.611 75.0952 160.486 73.4784C159.361 71.8623 158.216 70.6235 156.908 69.8261C154.344 68.2633 150.964 68.2927 145.414 71.0828C144.136 71.7291 142.592 71.8616 141.045 71.6401C139.493 71.418 137.901 70.8356 136.495 70.0074C133.726 68.3769 131.477 65.653 132.009 62.6705C132.554 59.6009 132.19 57.2723 131.314 55.3791C130.434 53.4763 129.019 51.9708 127.386 50.5799C126.569 49.8843 125.707 49.2243 124.834 48.5568L124.827 48.5511C123.961 47.8883 123.084 47.2178 122.256 46.5115C120.594 45.095 119.088 43.5048 118.175 41.4511L118.175 41.451C117.411 39.731 115.968 38.8289 114.308 38.579C112.632 38.3268 110.747 38.7457 109.194 39.6817C107.673 40.5991 106.938 41.8788 106.781 43.3105C106.621 44.7642 107.054 46.4174 107.968 48.0368L107.968 48.0369C109.691 51.0941 110.772 54.0066 109.963 57.9484M158.618 92.5985C158.618 92.5986 158.618 92.5986 158.618 92.5987L158.422 93.0588M158.422 93.0588L109.963 57.9484M96.2939 132.872C98.9576 134.796 101.21 132.878 103.398 131.016C103.932 130.562 104.462 130.11 104.993 129.719C106.054 128.943 107.09 128.069 108.125 127.196C113.183 122.931 118.208 118.694 125.881 125.96M96.2939 132.872L96.5878 132.468C96.5876 132.467 96.5873 132.467 96.5871 132.467M96.2939 132.872L96.5866 132.467C96.5868 132.467 96.5869 132.467 96.5871 132.467M96.2939 132.872C94.1292 131.299 95.1798 129.253 96.2248 127.219C96.6574 126.377 97.089 125.537 97.2911 124.733M96.5871 132.467C97.3359 133.008 98.0169 133.193 98.6522 133.17C99.2988 133.146 99.9465 132.905 100.617 132.51C101.289 132.114 101.953 131.582 102.635 131.007C102.778 130.887 102.921 130.765 103.066 130.642C103.602 130.186 104.15 129.719 104.696 129.317L104.698 129.316C105.745 128.549 106.758 127.694 107.786 126.828C108.277 126.414 108.772 125.996 109.275 125.585C110.81 124.33 112.402 123.146 114.109 122.386C115.828 121.621 117.674 121.281 119.703 121.724C121.722 122.164 123.872 123.369 126.225 125.597M96.5871 132.467C95.9119 131.976 95.635 131.471 95.5551 130.969C95.4715 130.444 95.5921 129.852 95.8522 129.178C96.0679 128.62 96.3598 128.051 96.6656 127.456C96.7298 127.331 96.7945 127.204 96.8593 127.077C97.2235 126.361 97.5879 125.603 97.7758 124.856M126.225 125.597L125.881 125.96M126.225 125.597C126.225 125.597 126.225 125.597 126.225 125.597L125.881 125.96M126.225 125.597C126.848 126.186 127.511 126.411 128.203 126.402C128.913 126.393 129.686 126.136 130.498 125.699C132.123 124.822 133.746 123.31 135.105 122.043L135.122 122.027L135.123 122.027C138.971 118.456 142.243 116.623 145.432 116.839C148.625 117.056 151.543 119.314 154.72 123.39M125.881 125.96C128.736 128.662 132.721 124.948 135.421 122.432L135.463 122.393C143.126 115.282 148.005 115.589 154.326 123.697M154.72 123.39C154.72 123.39 154.72 123.39 154.72 123.39L154.326 123.697M154.72 123.39L154.326 123.697M154.72 123.39C155.726 124.678 156.795 125.92 157.87 127.169C158.324 127.697 158.78 128.227 159.233 128.762C160.747 130.551 162.21 132.385 163.402 134.361C165.797 138.336 167.085 142.882 165.558 148.83L165.558 148.83C165.054 150.787 165.841 152.678 167.247 154.495C168.52 156.142 170.235 157.644 171.767 158.986C171.926 159.125 172.083 159.263 172.238 159.399M154.326 123.697C155.339 124.995 156.421 126.252 157.499 127.505C162.547 133.37 167.526 139.155 165.073 148.705C164.007 152.855 168.221 156.546 171.435 159.36C171.596 159.5 171.754 159.639 171.908 159.775M172.238 159.399C172.237 159.398 172.237 159.398 172.237 159.398L171.908 159.775M172.238 159.399C172.238 159.399 172.238 159.399 172.239 159.399L171.908 159.775M172.238 159.399C173.074 160.127 174.009 160.789 174.96 161.463C175.115 161.572 175.27 161.682 175.424 161.792C176.522 162.573 177.621 163.385 178.516 164.314C179.415 165.248 180.128 166.321 180.431 167.632C180.735 168.945 180.615 170.444 179.94 172.21M171.908 159.775C172.765 160.521 173.723 161.2 174.674 161.873C178.141 164.328 181.507 166.711 179.472 172.033M189.171 201.067C188.047 200.443 187.054 199.814 186.127 199.227C185.642 198.92 185.175 198.624 184.716 198.346C183.248 197.456 181.868 196.752 180.402 196.635L189.171 201.067ZM179.472 172.033L179.94 172.21M179.472 172.033L179.939 172.212C179.939 172.211 179.939 172.211 179.94 172.21M179.472 172.033L180.402 196.635C178.233 196.459 176.636 196.199 175.544 195.829C174.435 195.454 173.984 195.014 173.857 194.577C173.725 194.118 173.876 193.437 174.545 192.411C175.201 191.405 176.279 190.18 177.77 188.688C180.091 186.37 180.052 183.445 179.77 180.586C179.729 180.167 179.682 179.751 179.636 179.336C179.521 178.31 179.408 177.295 179.377 176.277C179.333 174.861 179.452 173.497 179.94 172.21M97.7758 124.856L97.2911 124.733M97.7758 124.856C97.7759 124.855 97.776 124.855 97.776 124.855L97.2911 124.733M97.7758 124.856L86.3875 92.6809C85.8978 91.9459 85.8677 91.34 86.2324 90.9149M97.2911 124.733C98.2916 120.779 98.844 116.729 99.3957 112.685C99.7281 110.248 100.06 107.813 100.49 105.402C101.242 101.167 102.454 91.7164 91.6375 95.4369C90.7093 95.7667 89.3668 95.3295 88.3619 94.9076M88.3619 94.9076L88.5586 94.4479C88.5581 94.4477 88.5575 94.4474 88.557 94.4472C88.5565 94.447 88.556 94.4468 88.5555 94.4466L88.3619 94.9076ZM88.3619 94.9076C86.4978 94.1098 84.6874 91.9465 85.8534 90.5887M85.8534 90.5887L86.2324 90.9149M85.8534 90.5887L86.2328 90.9145C86.2327 90.9146 86.2325 90.9147 86.2324 90.9149M85.8534 90.5887C88.5989 87.3987 86.1453 84.3768 83.7289 81.4008C80.6832 77.6498 77.6968 73.9718 85.2551 70.1221C86.9893 69.2467 87.6316 67.7505 88.2443 66.323C88.7591 65.1238 89.2532 63.9729 90.3564 63.2795C91.3083 62.6797 92.163 61.6176 93.0256 60.5458C95.3952 57.6014 97.8243 54.5832 102.492 60.8707M86.2324 90.9149L85.4818 70.5678M102.492 60.8707L102.09 61.1678C102.09 61.168 102.09 61.1682 102.09 61.1683M102.492 60.8707L102.091 61.1688C102.091 61.1686 102.09 61.1685 102.09 61.1683M102.492 60.8707C104.249 63.2488 108.407 63.0877 109.473 57.8483M102.09 61.1683C100.518 59.0508 99.2675 58.0956 98.2661 57.7913C97.314 57.5019 96.4968 57.7767 95.6812 58.4109C94.8938 59.023 94.1695 59.9225 93.4035 60.8738C93.3529 60.9366 93.3022 60.9996 93.2513 61.0627C92.4548 62.0503 91.5976 63.0884 90.623 63.7025L90.6225 63.7028C89.6577 64.3093 89.2248 65.3131 88.694 66.5439C88.6485 66.6496 88.6022 66.7569 88.5547 66.8659C87.9749 68.1978 87.2453 69.677 85.4818 70.5678M102.09 61.1683C103.083 62.5113 104.77 63.1565 106.379 62.6968C108.004 62.2324 109.405 60.6894 109.963 57.9489L109.473 57.8483M85.4818 70.5678C85.4819 70.5678 85.4819 70.5677 85.482 70.5677L85.2552 70.1222L85.4804 70.5685C85.4809 70.5683 85.4813 70.568 85.4818 70.5678ZM109.473 57.8483C110.248 54.0741 109.227 51.2895 107.532 48.2824L109.963 57.9484M109.473 57.8483L109.963 57.948C109.963 57.9482 109.963 57.9483 109.963 57.9484M164.337 79.036C159.535 70.1758 156.405 64.9978 145.19 70.6361C140.549 72.9835 131.55 68.0893 132.502 62.7578C133.902 54.8649 129.49 51.4891 125.136 48.158C122.525 46.1602 119.935 44.1785 118.632 41.248L164.337 79.036Z" fill="white" stroke="black"/>
<path d="M27.8746 176.45C27.8746 175.557 28.0739 174.76 28.4726 174.058C28.8799 173.347 29.4303 172.797 30.1236 172.407C30.8256 172.008 31.6099 171.809 32.4766 171.809C33.4906 171.809 34.3789 172.069 35.1416 172.589C35.9043 173.109 36.4373 173.828 36.7406 174.747H34.6476C34.4396 174.314 34.1449 173.989 33.7636 173.772C33.3909 173.555 32.9576 173.447 32.4636 173.447C31.9349 173.447 31.4626 173.573 31.0466 173.824C30.6393 174.067 30.3186 174.413 30.0846 174.864C29.8593 175.315 29.7466 175.843 29.7466 176.45C29.7466 177.048 29.8593 177.577 30.0846 178.036C30.3186 178.487 30.6393 178.838 31.0466 179.089C31.4626 179.332 31.9349 179.453 32.4636 179.453C32.9576 179.453 33.3909 179.345 33.7636 179.128C34.1449 178.903 34.4396 178.573 34.6476 178.14H36.7406C36.4373 179.067 35.9043 179.791 35.1416 180.311C34.3876 180.822 33.4993 181.078 32.4766 181.078C31.6099 181.078 30.8256 180.883 30.1236 180.493C29.4303 180.094 28.8799 179.544 28.4726 178.842C28.0739 178.14 27.8746 177.343 27.8746 176.45ZM48.1621 171.926V181H46.3421V177.139H42.4551V181H40.6351V171.926H42.4551V175.657H46.3421V171.926H48.1621ZM54.1135 171.926V181H52.2935V171.926H54.1135ZM60.0716 179.557H63.0616V181H58.2516V171.926H60.0716V179.557ZM68.3784 173.395V175.67H71.4334V177.113H68.3784V179.518H71.8234V181H66.5584V171.913H71.8234V173.395H68.3784Z" fill="#424040"/>
<path d="M59.0759 326.75C58.4919 326.75 57.9639 326.65 57.4919 326.45C57.0279 326.25 56.6599 325.962 56.3879 325.586C56.1159 325.21 55.9759 324.766 55.9679 324.254H57.7679C57.7919 324.598 57.9119 324.87 58.1279 325.07C58.3519 325.27 58.6559 325.37 59.0399 325.37C59.4319 325.37 59.7399 325.278 59.9639 325.094C60.1879 324.902 60.2999 324.654 60.2999 324.35C60.2999 324.102 60.2239 323.898 60.0719 323.738C59.9199 323.578 59.7279 323.454 59.4959 323.366C59.2719 323.27 58.9599 323.166 58.5599 323.054C58.0159 322.894 57.5719 322.738 57.2279 322.586C56.8919 322.426 56.5999 322.19 56.3519 321.878C56.1119 321.558 55.9919 321.134 55.9919 320.606C55.9919 320.11 56.1159 319.678 56.3639 319.31C56.6119 318.942 56.9599 318.662 57.4079 318.47C57.8559 318.27 58.3679 318.17 58.9439 318.17C59.8079 318.17 60.5079 318.382 61.0439 318.806C61.5879 319.222 61.8879 319.806 61.9439 320.558H60.0959C60.0799 320.27 59.9559 320.034 59.7239 319.85C59.4999 319.658 59.1999 319.562 58.8239 319.562C58.4959 319.562 58.2319 319.646 58.0319 319.814C57.8399 319.982 57.7439 320.226 57.7439 320.546C57.7439 320.77 57.8159 320.958 57.9599 321.11C58.1119 321.254 58.2959 321.374 58.5119 321.47C58.7359 321.558 59.0479 321.662 59.4479 321.782C59.9919 321.942 60.4359 322.102 60.7799 322.262C61.1239 322.422 61.4199 322.662 61.6679 322.982C61.9159 323.302 62.0399 323.722 62.0399 324.242C62.0399 324.69 61.9239 325.106 61.6919 325.49C61.4599 325.874 61.1199 326.182 60.6719 326.414C60.2239 326.638 59.6919 326.75 59.0759 326.75ZM69.5444 326.75C68.7604 326.75 68.0404 326.566 67.3844 326.198C66.7284 325.83 66.2084 325.322 65.8244 324.674C65.4404 324.018 65.2484 323.278 65.2484 322.454C65.2484 321.638 65.4404 320.906 65.8244 320.258C66.2084 319.602 66.7284 319.09 67.3844 318.722C68.0404 318.354 68.7604 318.17 69.5444 318.17C70.3364 318.17 71.0564 318.354 71.7044 318.722C72.3604 319.09 72.8764 319.602 73.2524 320.258C73.6364 320.906 73.8284 321.638 73.8284 322.454C73.8284 323.278 73.6364 324.018 73.2524 324.674C72.8764 325.322 72.3604 325.83 71.7044 326.198C71.0484 326.566 70.3284 326.75 69.5444 326.75ZM69.5444 325.25C70.0484 325.25 70.4924 325.138 70.8764 324.914C71.2604 324.682 71.5604 324.354 71.7764 323.93C71.9924 323.506 72.1004 323.014 72.1004 322.454C72.1004 321.894 71.9924 321.406 71.7764 320.99C71.5604 320.566 71.2604 320.242 70.8764 320.018C70.4924 319.794 70.0484 319.682 69.5444 319.682C69.0404 319.682 68.5924 319.794 68.2004 320.018C67.8164 320.242 67.5164 320.566 67.3004 320.99C67.0844 321.406 66.9764 321.894 66.9764 322.454C66.9764 323.014 67.0844 323.506 67.3004 323.93C67.5164 324.354 67.8164 324.682 68.2004 324.914C68.5924 325.138 69.0404 325.25 69.5444 325.25ZM78.8942 318.29V323.474C78.8942 324.042 79.0422 324.478 79.3382 324.782C79.6342 325.078 80.0502 325.226 80.5862 325.226C81.1302 325.226 81.5502 325.078 81.8462 324.782C82.1422 324.478 82.2902 324.042 82.2902 323.474V318.29H83.9822V323.462C83.9822 324.174 83.8262 324.778 83.5142 325.274C83.2102 325.762 82.7982 326.13 82.2782 326.378C81.7662 326.626 81.1942 326.75 80.5622 326.75C79.9382 326.75 79.3702 326.626 78.8582 326.378C78.3542 326.13 77.9542 325.762 77.6582 325.274C77.3622 324.778 77.2142 324.174 77.2142 323.462V318.29H78.8942ZM93.4654 318.29V319.646H91.2334V326.666H89.5534V319.646H87.3214V318.29H93.4654ZM103.799 318.29V326.666H102.119V323.102H98.5312V326.666H96.8512V318.29H98.5312V321.734H102.119V318.29H103.799ZM61.1734 339.07H57.8374L57.2854 340.666H55.5214L58.5334 332.278H60.4894L63.5014 340.666H61.7254L61.1734 339.07ZM60.7174 337.726L59.5054 334.222L58.2934 337.726H60.7174ZM71.9592 332.29V333.646H68.4672V335.794H71.1432V337.126H68.4672V340.666H66.7872V332.29H71.9592ZM79.6305 340.666L77.7825 337.402H76.9905V340.666H75.3105V332.29H78.4545C79.1025 332.29 79.6545 332.406 80.1105 332.638C80.5665 332.862 80.9065 333.17 81.1305 333.562C81.3625 333.946 81.4785 334.378 81.4785 334.858C81.4785 335.41 81.3185 335.91 80.9985 336.358C80.6785 336.798 80.2025 337.102 79.5705 337.27L81.5745 340.666H79.6305ZM76.9905 336.142H78.3945C78.8505 336.142 79.1905 336.034 79.4145 335.818C79.6385 335.594 79.7505 335.286 79.7505 334.894C79.7505 334.51 79.6385 334.214 79.4145 334.006C79.1905 333.79 78.8505 333.682 78.3945 333.682H76.9905V336.142ZM86.838 332.29V340.666H85.158V332.29H86.838ZM90.2498 336.466C90.2498 335.642 90.4338 334.906 90.8018 334.258C91.1778 333.602 91.6858 333.094 92.3258 332.734C92.9738 332.366 93.6978 332.182 94.4978 332.182C95.4338 332.182 96.2538 332.422 96.9578 332.902C97.6618 333.382 98.1538 334.046 98.4338 334.894H96.5018C96.3098 334.494 96.0378 334.194 95.6858 333.994C95.3418 333.794 94.9418 333.694 94.4858 333.694C93.9978 333.694 93.5618 333.81 93.1778 334.042C92.8018 334.266 92.5058 334.586 92.2898 335.002C92.0818 335.418 91.9778 335.906 91.9778 336.466C91.9778 337.018 92.0818 337.506 92.2898 337.93C92.5058 338.346 92.8018 338.67 93.1778 338.902C93.5618 339.126 93.9978 339.238 94.4858 339.238C94.9418 339.238 95.3418 339.138 95.6858 338.938C96.0378 338.73 96.3098 338.426 96.5018 338.026H98.4338C98.1538 338.882 97.6618 339.55 96.9578 340.03C96.2618 340.502 95.4418 340.738 94.4978 340.738C93.6978 340.738 92.9738 340.558 92.3258 340.198C91.6858 339.83 91.1778 339.322 90.8018 338.674C90.4338 338.026 90.2498 337.29 90.2498 336.466ZM107.165 339.07H103.829L103.277 340.666H101.513L104.525 332.278H106.481L109.493 340.666H107.717L107.165 339.07ZM106.709 337.726L105.497 334.222L104.285 337.726H106.709Z" fill="black"/>
<path d="M138.296 240.091C137.664 240.091 137.092 239.983 136.58 239.766C136.078 239.549 135.679 239.237 135.384 238.83C135.09 238.423 134.938 237.942 134.929 237.387H136.879C136.905 237.76 137.035 238.054 137.269 238.271C137.512 238.488 137.841 238.596 138.257 238.596C138.682 238.596 139.016 238.496 139.258 238.297C139.501 238.089 139.622 237.82 139.622 237.491C139.622 237.222 139.54 237.001 139.375 236.828C139.211 236.655 139.003 236.52 138.751 236.425C138.509 236.321 138.171 236.208 137.737 236.087C137.148 235.914 136.667 235.745 136.294 235.58C135.93 235.407 135.614 235.151 135.345 234.813C135.085 234.466 134.955 234.007 134.955 233.435C134.955 232.898 135.09 232.43 135.358 232.031C135.627 231.632 136.004 231.329 136.489 231.121C136.975 230.904 137.529 230.796 138.153 230.796C139.089 230.796 139.848 231.026 140.428 231.485C141.018 231.936 141.343 232.568 141.403 233.383H139.401C139.384 233.071 139.25 232.815 138.998 232.616C138.756 232.408 138.431 232.304 138.023 232.304C137.668 232.304 137.382 232.395 137.165 232.577C136.957 232.759 136.853 233.023 136.853 233.37C136.853 233.613 136.931 233.816 137.087 233.981C137.252 234.137 137.451 234.267 137.685 234.371C137.928 234.466 138.266 234.579 138.699 234.709C139.289 234.882 139.77 235.056 140.142 235.229C140.515 235.402 140.836 235.662 141.104 236.009C141.373 236.356 141.507 236.811 141.507 237.374C141.507 237.859 141.382 238.31 141.13 238.726C140.879 239.142 140.511 239.476 140.025 239.727C139.54 239.97 138.964 240.091 138.296 240.091ZM147.245 230.926V240H145.425V230.926H147.245ZM159.145 240H157.325L153.204 233.773V240H151.384V230.913H153.204L157.325 237.153V230.913H159.145V240ZM169.601 233.656C169.393 233.275 169.107 232.984 168.743 232.785C168.379 232.586 167.954 232.486 167.469 232.486C166.932 232.486 166.455 232.607 166.039 232.85C165.623 233.093 165.298 233.439 165.064 233.89C164.83 234.341 164.713 234.861 164.713 235.45C164.713 236.057 164.83 236.585 165.064 237.036C165.307 237.487 165.64 237.833 166.065 238.076C166.49 238.319 166.984 238.44 167.547 238.44C168.24 238.44 168.808 238.258 169.25 237.894C169.692 237.521 169.982 237.006 170.121 236.347H167.001V234.956H171.915V236.542C171.794 237.175 171.534 237.76 171.135 238.297C170.736 238.834 170.221 239.268 169.588 239.597C168.964 239.918 168.262 240.078 167.482 240.078C166.607 240.078 165.814 239.883 165.103 239.493C164.401 239.094 163.846 238.544 163.439 237.842C163.04 237.14 162.841 236.343 162.841 235.45C162.841 234.557 163.04 233.76 163.439 233.058C163.846 232.347 164.401 231.797 165.103 231.407C165.814 231.008 166.602 230.809 167.469 230.809C168.492 230.809 169.38 231.06 170.134 231.563C170.888 232.057 171.408 232.755 171.694 233.656H169.601ZM181.166 238.271H177.552L176.954 240H175.043L178.306 230.913H180.425L183.688 240H181.764L181.166 238.271ZM180.672 236.815L179.359 233.019L178.046 236.815H180.672ZM193.864 233.734C193.864 234.219 193.747 234.674 193.513 235.099C193.288 235.524 192.928 235.866 192.434 236.126C191.949 236.386 191.334 236.516 190.588 236.516H189.067V240H187.247V230.926H190.588C191.29 230.926 191.888 231.047 192.382 231.29C192.876 231.533 193.245 231.866 193.487 232.291C193.739 232.716 193.864 233.197 193.864 233.734ZM190.51 235.047C191.013 235.047 191.386 234.934 191.628 234.709C191.871 234.475 191.992 234.15 191.992 233.734C191.992 232.85 191.498 232.408 190.51 232.408H189.067V235.047H190.51ZM201.708 240.091C200.859 240.091 200.079 239.892 199.368 239.493C198.658 239.094 198.094 238.544 197.678 237.842C197.262 237.131 197.054 236.33 197.054 235.437C197.054 234.553 197.262 233.76 197.678 233.058C198.094 232.347 198.658 231.793 199.368 231.394C200.079 230.995 200.859 230.796 201.708 230.796C202.566 230.796 203.346 230.995 204.048 231.394C204.759 231.793 205.318 232.347 205.725 233.058C206.141 233.76 206.349 234.553 206.349 235.437C206.349 236.33 206.141 237.131 205.725 237.842C205.318 238.544 204.759 239.094 204.048 239.493C203.338 239.892 202.558 240.091 201.708 240.091ZM201.708 238.466C202.254 238.466 202.735 238.345 203.151 238.102C203.567 237.851 203.892 237.495 204.126 237.036C204.36 236.577 204.477 236.044 204.477 235.437C204.477 234.83 204.36 234.302 204.126 233.851C203.892 233.392 203.567 233.041 203.151 232.798C202.735 232.555 202.254 232.434 201.708 232.434C201.162 232.434 200.677 232.555 200.252 232.798C199.836 233.041 199.511 233.392 199.277 233.851C199.043 234.302 198.926 234.83 198.926 235.437C198.926 236.044 199.043 236.577 199.277 237.036C199.511 237.495 199.836 237.851 200.252 238.102C200.677 238.345 201.162 238.466 201.708 238.466ZM214.723 240L212.721 236.464H211.863V240H210.043V230.926H213.449C214.151 230.926 214.749 231.052 215.243 231.303C215.737 231.546 216.106 231.879 216.348 232.304C216.6 232.72 216.725 233.188 216.725 233.708C216.725 234.306 216.552 234.848 216.205 235.333C215.859 235.81 215.343 236.139 214.658 236.321L216.829 240H214.723ZM211.863 235.099H213.384C213.878 235.099 214.247 234.982 214.489 234.748C214.732 234.505 214.853 234.172 214.853 233.747C214.853 233.331 214.732 233.01 214.489 232.785C214.247 232.551 213.878 232.434 213.384 232.434H211.863V235.099ZM222.532 232.395V234.67H225.587V236.113H222.532V238.518H225.977V240H220.712V230.913H225.977V232.395H222.532Z" fill="#424040"/>
<path d="M109.006 94.223H111.996V95.666H107.186V86.592H109.006V94.223ZM121.057 93.937H117.443L116.845 95.666H114.934L118.197 86.579H120.316L123.579 95.666H121.655L121.057 93.937ZM120.563 92.481L119.25 88.685L117.937 92.481H120.563ZM131.351 95.757C130.501 95.757 129.721 95.5577 129.011 95.159C128.3 94.7603 127.737 94.21 127.321 93.508C126.905 92.7973 126.697 91.9957 126.697 91.103C126.697 90.219 126.905 89.426 127.321 88.724C127.737 88.0133 128.3 87.4587 129.011 87.06C129.721 86.6613 130.501 86.462 131.351 86.462C132.209 86.462 132.989 86.6613 133.691 87.06C134.401 87.4587 134.96 88.0133 135.368 88.724C135.784 89.426 135.992 90.219 135.992 91.103C135.992 91.9957 135.784 92.7973 135.368 93.508C134.96 94.21 134.401 94.7603 133.691 95.159C132.98 95.5577 132.2 95.757 131.351 95.757ZM131.351 94.132C131.897 94.132 132.378 94.0107 132.794 93.768C133.21 93.5167 133.535 93.1613 133.769 92.702C134.003 92.2427 134.12 91.7097 134.12 91.103C134.12 90.4963 134.003 89.9677 133.769 89.517C133.535 89.0577 133.21 88.7067 132.794 88.464C132.378 88.2213 131.897 88.1 131.351 88.1C130.805 88.1 130.319 88.2213 129.895 88.464C129.479 88.7067 129.154 89.0577 128.92 89.517C128.686 89.9677 128.569 90.4963 128.569 91.103C128.569 91.7097 128.686 92.2427 128.92 92.702C129.154 93.1613 129.479 93.5167 129.895 93.768C130.319 94.0107 130.805 94.132 131.351 94.132ZM142.819 95.757C142.186 95.757 141.614 95.6487 141.103 95.432C140.6 95.2153 140.201 94.9033 139.907 94.496C139.612 94.0887 139.46 93.6077 139.452 93.053H141.402C141.428 93.4257 141.558 93.7203 141.792 93.937C142.034 94.1537 142.364 94.262 142.78 94.262C143.204 94.262 143.538 94.1623 143.781 93.963C144.023 93.755 144.145 93.4863 144.145 93.157C144.145 92.8883 144.062 92.6673 143.898 92.494C143.733 92.3207 143.525 92.1863 143.274 92.091C143.031 91.987 142.693 91.8743 142.26 91.753C141.67 91.5797 141.189 91.4107 140.817 91.246C140.453 91.0727 140.136 90.817 139.868 90.479C139.608 90.1323 139.478 89.673 139.478 89.101C139.478 88.5637 139.612 88.0957 139.881 87.697C140.149 87.2983 140.526 86.995 141.012 86.787C141.497 86.5703 142.052 86.462 142.676 86.462C143.612 86.462 144.37 86.6917 144.951 87.151C145.54 87.6017 145.865 88.2343 145.926 89.049H143.924C143.906 88.737 143.772 88.4813 143.521 88.282C143.278 88.074 142.953 87.97 142.546 87.97C142.19 87.97 141.904 88.061 141.688 88.243C141.48 88.425 141.376 88.6893 141.376 89.036C141.376 89.2787 141.454 89.4823 141.61 89.647C141.774 89.803 141.974 89.933 142.208 90.037C142.45 90.1323 142.788 90.245 143.222 90.375C143.811 90.5483 144.292 90.7217 144.665 90.895C145.037 91.0683 145.358 91.3283 145.627 91.675C145.895 92.0217 146.03 92.4767 146.03 93.04C146.03 93.5253 145.904 93.976 145.653 94.392C145.401 94.808 145.033 95.1417 144.548 95.393C144.062 95.6357 143.486 95.757 142.819 95.757Z" fill="black"/>
<path d="M272.827 127.592V136.666H271.007V127.592H272.827ZM284.726 136.666H282.906L278.785 130.439V136.666H276.965V127.579H278.785L282.906 133.819V127.579H284.726V136.666ZM292.037 127.592C292.99 127.592 293.826 127.778 294.546 128.151C295.274 128.524 295.833 129.057 296.223 129.75C296.621 130.435 296.821 131.232 296.821 132.142C296.821 133.052 296.621 133.849 296.223 134.534C295.833 135.21 295.274 135.734 294.546 136.107C293.826 136.48 292.99 136.666 292.037 136.666H288.865V127.592H292.037ZM291.972 135.119C292.925 135.119 293.662 134.859 294.182 134.339C294.702 133.819 294.962 133.087 294.962 132.142C294.962 131.197 294.702 130.461 294.182 129.932C293.662 129.395 292.925 129.126 291.972 129.126H290.685V135.119H291.972ZM302.343 127.592V136.666H300.523V127.592H302.343ZM312.045 134.937H308.431L307.833 136.666H305.922L309.185 127.579H311.304L314.567 136.666H312.643L312.045 134.937ZM311.551 133.481L310.238 129.685L308.925 133.481H311.551Z" fill="black"/>
<path d="M347.108 186.926L343.78 196H341.57L338.242 186.926H340.192L342.688 194.141L345.171 186.926H347.108ZM352.359 186.926V196H350.539V186.926H352.359ZM358.317 188.395V190.67H361.372V192.113H358.317V194.518H361.762V196H356.497V186.913H361.762V188.395H358.317ZM371.931 186.926V188.395H369.513V196H367.693V188.395H365.275V186.926H371.931ZM383.36 196H381.54L377.419 189.773V196H375.599V186.913H377.419L381.54 193.153V186.913H383.36V196ZM393.063 194.271H389.449L388.851 196H386.94L390.203 186.913H392.322L395.585 196H393.661L393.063 194.271ZM392.569 192.815L391.256 189.019L389.943 192.815H392.569ZM409.038 186.926V196H407.218V190.098L404.787 196H403.409L400.965 190.098V196H399.145V186.926H401.212L404.098 193.673L406.984 186.926H409.038Z" fill="#424040"/>
<path d="M302.343 334.926V344H300.523V334.926H302.343ZM314.242 344H312.422L308.301 337.773V344H306.481V334.913H308.301L312.422 341.153V334.913H314.242V344ZM321.553 334.926C322.506 334.926 323.343 335.112 324.062 335.485C324.79 335.858 325.349 336.391 325.739 337.084C326.138 337.769 326.337 338.566 326.337 339.476C326.337 340.386 326.138 341.183 325.739 341.868C325.349 342.544 324.79 343.068 324.062 343.441C323.343 343.814 322.506 344 321.553 344H318.381V334.926H321.553ZM321.488 342.453C322.441 342.453 323.178 342.193 323.698 341.673C324.218 341.153 324.478 340.421 324.478 339.476C324.478 338.531 324.218 337.795 323.698 337.266C323.178 336.729 322.441 336.46 321.488 336.46H320.201V342.453H321.488ZM334.251 344.091C333.402 344.091 332.622 343.892 331.911 343.493C331.201 343.094 330.637 342.544 330.221 341.842C329.805 341.131 329.597 340.33 329.597 339.437C329.597 338.553 329.805 337.76 330.221 337.058C330.637 336.347 331.201 335.793 331.911 335.394C332.622 334.995 333.402 334.796 334.251 334.796C335.109 334.796 335.889 334.995 336.591 335.394C337.302 335.793 337.861 336.347 338.268 337.058C338.684 337.76 338.892 338.553 338.892 339.437C338.892 340.33 338.684 341.131 338.268 341.842C337.861 342.544 337.302 343.094 336.591 343.493C335.881 343.892 335.101 344.091 334.251 344.091ZM334.251 342.466C334.797 342.466 335.278 342.345 335.694 342.102C336.11 341.851 336.435 341.495 336.669 341.036C336.903 340.577 337.02 340.044 337.02 339.437C337.02 338.83 336.903 338.302 336.669 337.851C336.435 337.392 336.11 337.041 335.694 336.798C335.278 336.555 334.797 336.434 334.251 336.434C333.705 336.434 333.22 336.555 332.795 336.798C332.379 337.041 332.054 337.392 331.82 337.851C331.586 338.302 331.469 338.83 331.469 339.437C331.469 340.044 331.586 340.577 331.82 341.036C332.054 341.495 332.379 341.851 332.795 342.102C333.22 342.345 333.705 342.466 334.251 342.466ZM350.347 344H348.527L344.406 337.773V344H342.586V334.913H344.406L348.527 341.153V334.913H350.347V344ZM356.306 336.395V338.67H359.361V340.113H356.306V342.518H359.751V344H354.486V334.913H359.751V336.395H356.306ZM366.878 344.091C366.245 344.091 365.673 343.983 365.162 343.766C364.659 343.549 364.261 343.237 363.966 342.83C363.671 342.423 363.52 341.942 363.511 341.387H365.461C365.487 341.76 365.617 342.054 365.851 342.271C366.094 342.488 366.423 342.596 366.839 342.596C367.264 342.596 367.597 342.496 367.84 342.297C368.083 342.089 368.204 341.82 368.204 341.491C368.204 341.222 368.122 341.001 367.957 340.828C367.792 340.655 367.584 340.52 367.333 340.425C367.09 340.321 366.752 340.208 366.319 340.087C365.73 339.914 365.249 339.745 364.876 339.58C364.512 339.407 364.196 339.151 363.927 338.813C363.667 338.466 363.537 338.007 363.537 337.435C363.537 336.898 363.671 336.43 363.94 336.031C364.209 335.632 364.586 335.329 365.071 335.121C365.556 334.904 366.111 334.796 366.735 334.796C367.671 334.796 368.429 335.026 369.01 335.485C369.599 335.936 369.924 336.568 369.985 337.383H367.983C367.966 337.071 367.831 336.815 367.58 336.616C367.337 336.408 367.012 336.304 366.605 336.304C366.25 336.304 365.964 336.395 365.747 336.577C365.539 336.759 365.435 337.023 365.435 337.37C365.435 337.613 365.513 337.816 365.669 337.981C365.834 338.137 366.033 338.267 366.267 338.371C366.51 338.466 366.848 338.579 367.281 338.709C367.87 338.882 368.351 339.056 368.724 339.229C369.097 339.402 369.417 339.662 369.686 340.009C369.955 340.356 370.089 340.811 370.089 341.374C370.089 341.859 369.963 342.31 369.712 342.726C369.461 343.142 369.092 343.476 368.607 343.727C368.122 343.97 367.545 344.091 366.878 344.091ZM375.827 334.926V344H374.007V334.926H375.827ZM385.529 342.271H381.915L381.317 344H379.406L382.669 334.913H384.788L388.051 344H386.127L385.529 342.271ZM385.035 340.815L383.722 337.019L382.409 340.815H385.035Z" fill="#424040"/>
<path d="M502.941 243.937H499.327L498.729 245.666H496.818L500.081 236.579H502.2L505.463 245.666H503.539L502.941 243.937ZM502.447 242.481L501.134 238.685L499.821 242.481H502.447ZM510.817 236.592V242.208C510.817 242.823 510.977 243.296 511.298 243.625C511.619 243.946 512.069 244.106 512.65 244.106C513.239 244.106 513.694 243.946 514.015 243.625C514.336 243.296 514.496 242.823 514.496 242.208V236.592H516.329V242.195C516.329 242.966 516.16 243.621 515.822 244.158C515.493 244.687 515.046 245.085 514.483 245.354C513.928 245.623 513.309 245.757 512.624 245.757C511.948 245.757 511.333 245.623 510.778 245.354C510.232 245.085 509.799 244.687 509.478 244.158C509.157 243.621 508.997 242.966 508.997 242.195V236.592H510.817ZM523.56 245.757C522.928 245.757 522.356 245.649 521.844 245.432C521.342 245.215 520.943 244.903 520.648 244.496C520.354 244.089 520.202 243.608 520.193 243.053H522.143C522.169 243.426 522.299 243.72 522.533 243.937C522.776 244.154 523.105 244.262 523.521 244.262C523.946 244.262 524.28 244.162 524.522 243.963C524.765 243.755 524.886 243.486 524.886 243.157C524.886 242.888 524.804 242.667 524.639 242.494C524.475 242.321 524.267 242.186 524.015 242.091C523.773 241.987 523.435 241.874 523.001 241.753C522.412 241.58 521.931 241.411 521.558 241.246C521.194 241.073 520.878 240.817 520.609 240.479C520.349 240.132 520.219 239.673 520.219 239.101C520.219 238.564 520.354 238.096 520.622 237.697C520.891 237.298 521.268 236.995 521.753 236.787C522.239 236.57 522.793 236.462 523.417 236.462C524.353 236.462 525.112 236.692 525.692 237.151C526.282 237.602 526.607 238.234 526.667 239.049H524.665C524.648 238.737 524.514 238.481 524.262 238.282C524.02 238.074 523.695 237.97 523.287 237.97C522.932 237.97 522.646 238.061 522.429 238.243C522.221 238.425 522.117 238.689 522.117 239.036C522.117 239.279 522.195 239.482 522.351 239.647C522.516 239.803 522.715 239.933 522.949 240.037C523.192 240.132 523.53 240.245 523.963 240.375C524.553 240.548 525.034 240.722 525.406 240.895C525.779 241.068 526.1 241.328 526.368 241.675C526.637 242.022 526.771 242.477 526.771 243.04C526.771 243.525 526.646 243.976 526.394 244.392C526.143 244.808 525.775 245.142 525.289 245.393C524.804 245.636 524.228 245.757 523.56 245.757ZM536.864 236.592V238.061H534.446V245.666H532.626V238.061H530.208V236.592H536.864ZM545.212 245.666L543.21 242.13H542.352V245.666H540.532V236.592H543.938C544.64 236.592 545.238 236.718 545.732 236.969C546.226 237.212 546.595 237.545 546.837 237.97C547.089 238.386 547.214 238.854 547.214 239.374C547.214 239.972 547.041 240.514 546.694 240.999C546.348 241.476 545.832 241.805 545.147 241.987L547.318 245.666H545.212ZM542.352 240.765H543.873C544.367 240.765 544.736 240.648 544.978 240.414C545.221 240.171 545.342 239.838 545.342 239.413C545.342 238.997 545.221 238.676 544.978 238.451C544.736 238.217 544.367 238.1 543.873 238.1H542.352V240.765ZM556.764 243.937H553.15L552.552 245.666H550.641L553.904 236.579H556.023L559.286 245.666H557.362L556.764 243.937ZM556.27 242.481L554.957 238.685L553.644 242.481H556.27ZM564.666 244.223H567.656V245.666H562.846V236.592H564.666V244.223ZM572.973 236.592V245.666H571.153V236.592H572.973ZM582.675 243.937H579.061L578.463 245.666H576.552L579.815 236.579H581.934L585.197 245.666H583.273L582.675 243.937ZM582.181 242.481L580.868 238.685L579.555 242.481H582.181Z" fill="black"/>
<path d="M468.977 74.3406C468.977 73.448 469.176 72.6506 469.575 71.9486C469.982 71.238 470.533 70.6876 471.226 70.2976C471.928 69.899 472.712 69.6996 473.579 69.6996C474.593 69.6996 475.481 69.9596 476.244 70.4796C477.007 70.9996 477.54 71.719 477.843 72.6376H475.75C475.542 72.2043 475.247 71.8793 474.866 71.6626C474.493 71.446 474.06 71.3376 473.566 71.3376C473.037 71.3376 472.565 71.4633 472.149 71.7146C471.742 71.9573 471.421 72.304 471.187 72.7546C470.962 73.2053 470.849 73.734 470.849 74.3406C470.849 74.9386 470.962 75.4673 471.187 75.9266C471.421 76.3773 471.742 76.7283 472.149 76.9796C472.565 77.2223 473.037 77.3436 473.566 77.3436C474.06 77.3436 474.493 77.2353 474.866 77.0186C475.247 76.7933 475.542 76.464 475.75 76.0306H477.843C477.54 76.958 477.007 77.6816 476.244 78.2016C475.49 78.713 474.602 78.9686 473.579 78.9686C472.712 78.9686 471.928 78.7736 471.226 78.3836C470.533 77.985 469.982 77.4346 469.575 76.7326C469.176 76.0306 468.977 75.2333 468.977 74.3406ZM489.265 69.8166V78.8906H487.445V75.0296H483.558V78.8906H481.738V69.8166H483.558V73.5476H487.445V69.8166H489.265ZM495.216 69.8166V78.8906H493.396V69.8166H495.216ZM507.115 78.8906H505.295L501.174 72.6636V78.8906H499.354V69.8036H501.174L505.295 76.0436V69.8036H507.115V78.8906ZM516.818 77.1616H513.204L512.606 78.8906H510.695L513.958 69.8036H516.077L519.34 78.8906H517.416L516.818 77.1616ZM516.324 75.7056L515.011 71.9096L513.698 75.7056H516.324Z" fill="black"/>
</svg>
